<?xml version="1.0" standalone="no"?>
 <!DOCTYPE svg PUBLIC "-//W3C//DTD SVG 1.1//EN" 
 "http://www.w3.org/Graphics/SVG/1.1/DTD/svg11.dtd"> 
<svg
  xmlns:svg="http://www.w3.org/2000/svg"
  xmlns="http://www.w3.org/2000/svg"
  xmlns:xlink="http://www.w3.org/1999/xlink"
  version="1.1"
  width="29.700220cm" height="21.000720cm" viewBox="0 0 116930 82680">
<title>SVG Picture created as vco_frontpanel-PTH-drl_map.svg date 2022/12/31 10:08:57 </title>
  <desc>Picture generated by PCBNEW </desc>
<g style="fill:#000000; fill-opacity:1.000000;stroke:#000000; stroke-opacity:1.000000;
stroke-linecap:round; stroke-linejoin:round;"
 transform="translate(0 0) scale(1 1)">
</g>
<g style="fill:#000000; fill-opacity:0.0; 
stroke:#000000; stroke-width:0.000000; stroke-opacity:1; 
stroke-linecap:round; stroke-linejoin:round;">
</g>
<g style="fill:#000000; fill-opacity:0.0; 
stroke:#000000; stroke-width:70.972793; stroke-opacity:1; 
stroke-linecap:round; stroke-linejoin:round;">
<path d="M49504 2003
L67425 2003
" />
<path d="M67425 2003
L67425 47604
" />
<path d="M67425 47604
L49504 47604
" />
<path d="M49504 47604
L49504 2003
" />
<text x="50178.926289" y="48775.060673"
textLength="5275.644378" font-size="946.303667" lengthAdjust="spacingAndGlyphs"
text-anchor="start" opacity="0">Drill Map:</text>
<g class="stroked-text"><desc>Drill Map:</desc>
<path d="M50383 48741
L50383 48031
L50552 48031
L50653 48065
L50721 48132
L50755 48200
L50788 48335
L50788 48437
L50755 48572
L50721 48639
L50653 48707
L50552 48741
L50383 48741
" />
<path d="M51093 48741
L51093 48268
" />
<path d="M51093 48403
L51126 48335
L51160 48301
L51228 48268
L51295 48268
" />
<path d="M51532 48741
L51532 48268
" />
<path d="M51532 48031
L51498 48065
L51532 48099
L51566 48065
L51532 48031
L51532 48099
" />
<path d="M51971 48741
L51904 48707
L51870 48639
L51870 48031
" />
<path d="M52343 48741
L52276 48707
L52242 48639
L52242 48031
" />
<path d="M53154 48741
L53154 48031
L53391 48538
L53627 48031
L53627 48741
" />
<path d="M54270 48741
L54270 48369
L54236 48301
L54168 48268
L54033 48268
L53965 48301
" />
<path d="M54270 48707
L54202 48741
L54033 48741
L53965 48707
L53932 48639
L53932 48572
L53965 48504
L54033 48470
L54202 48470
L54270 48437
" />
<path d="M54607 48268
L54607 48977
" />
<path d="M54607 48301
L54675 48268
L54810 48268
L54878 48301
L54912 48335
L54945 48403
L54945 48606
L54912 48673
L54878 48707
L54810 48741
L54675 48741
L54607 48707
" />
<path d="M55250 48673
L55283 48707
L55250 48741
L55216 48707
L55250 48673
L55250 48741
" />
<path d="M55250 48301
L55283 48335
L55250 48369
L55216 48335
L55250 48301
L55250 48369
" />
</g></g> 
</svg>
