<?xml version="1.0" standalone="no"?>
 <!DOCTYPE svg PUBLIC "-//W3C//DTD SVG 1.1//EN" 
 "http://www.w3.org/Graphics/SVG/1.1/DTD/svg11.dtd"> 
<svg
  xmlns:svg="http://www.w3.org/2000/svg"
  xmlns="http://www.w3.org/2000/svg"
  xmlns:xlink="http://www.w3.org/1999/xlink"
  version="1.1"
  width="29.700220cm" height="21.000720cm" viewBox="0 0 116930 82680">
<title>SVG Picture created as vco_frontpanel-NPTH-drl_map.svg date 2022/12/31 10:08:57 </title>
  <desc>Picture generated by PCBNEW </desc>
<g style="fill:#000000; fill-opacity:1.000000;stroke:#000000; stroke-opacity:1.000000;
stroke-linecap:round; stroke-linejoin:round;"
 transform="translate(0 0) scale(1 1)">
</g>
<g style="fill:#000000; fill-opacity:0.0; 
stroke:#000000; stroke-width:0.000000; stroke-opacity:1; 
stroke-linecap:round; stroke-linejoin:round;">
</g>
<g style="fill:#000000; fill-opacity:0.0; 
stroke:#000000; stroke-width:70.972793; stroke-opacity:1; 
stroke-linecap:round; stroke-linejoin:round;">
<path d="M49504 2003
L67425 2003
" />
<path d="M67425 2003
L67425 47604
" />
<path d="M67425 47604
L49504 47604
" />
<path d="M49504 47604
L49504 2003
" />
</g>
<g style="fill:#000000; fill-opacity:0.0; 
stroke:#000000; stroke-width:113.556468; stroke-opacity:1; 
stroke-linecap:round; stroke-linejoin:round;">
<path d="M51598 2500
L52733 3636
" />
<path d="M52733 2500
L51598 3636
" />
<path d="M51598 45971
L52733 47107
" />
<path d="M52733 45971
L51598 47107
" />
<path d="M64196 2500
L65331 3636
" />
<path d="M65331 2500
L64196 3636
" />
<path d="M64196 45971
L65331 47107
" />
<path d="M65331 45971
L64196 47107
" />
<path d="M65526 6183
L66662 7319
" />
<path d="M66662 6183
L65526 7319
" />
</g>
<g style="fill:#000000; fill-opacity:0.0; 
stroke:#000000; stroke-width:177.431982; stroke-opacity:1; 
stroke-linecap:round; stroke-linejoin:round;">
<circle cx="50657.992640" cy="14424.228989" r="887.159909" /> 
<circle cx="66272.007042" cy="14424.228989" r="887.159909" /> 
</g>
<g style="fill:#000000; fill-opacity:0.0; 
stroke:#000000; stroke-width:227.112937; stroke-opacity:1; 
stroke-linecap:round; stroke-linejoin:round;">
<path d="M51367 25946
L51367 28217
" />
<path d="M50232 27082
L52503 27082
" />
<path d="M51367 40613
L51367 42884
" />
<path d="M50232 41748
L52503 41748
" />
<path d="M54916 40613
L54916 42884
" />
<path d="M53780 41748
L56051 41748
" />
<path d="M56099 25946
L56099 28217
" />
<path d="M54963 27082
L57234 27082
" />
<path d="M58464 40613
L58464 42884
" />
<path d="M57329 41748
L59600 41748
" />
<path d="M60830 25946
L60830 28217
" />
<path d="M59695 27082
L61966 27082
" />
<path d="M62013 40613
L62013 42884
" />
<path d="M60878 41748
L63149 41748
" />
<path d="M65562 25946
L65562 28217
" />
<path d="M64426 27082
L66697 27082
" />
<path d="M65562 40613
L65562 42884
" />
<path d="M64426 41748
L66697 41748
" />
</g>
<g style="fill:#000000; fill-opacity:0.0; 
stroke:#000000; stroke-width:262.599333; stroke-opacity:1; 
stroke-linecap:round; stroke-linejoin:round;">
<path style="fill:#000000; fill-opacity:0.0; 
stroke:#000000; stroke-width:262.599333; stroke-opacity:1; 
stroke-linecap:round; stroke-linejoin:round;fill:none"
d="M 54957.637981,21559.237399
54957.637981,19702.362028
53100.762610,19702.362028
53100.762610,21559.237399
Z" /> 
<path style="fill:#000000; fill-opacity:0.0; 
stroke:#000000; stroke-width:262.599333; stroke-opacity:1; 
stroke-linecap:round; stroke-linejoin:round;fill:none"
d="M 54957.637981,34220.783623
54957.637981,32363.908252
53100.762610,32363.908252
53100.762610,34220.783623
Z" /> 
<path style="fill:#000000; fill-opacity:0.0; 
stroke:#000000; stroke-width:262.599333; stroke-opacity:1; 
stroke-linecap:round; stroke-linejoin:round;fill:none"
d="M 59393.437527,11804.027037
59393.437527,9947.151666
57536.562156,9947.151666
57536.562156,11804.027037
Z" /> 
<path style="fill:#000000; fill-opacity:0.0; 
stroke:#000000; stroke-width:262.599333; stroke-opacity:1; 
stroke-linecap:round; stroke-linejoin:round;fill:none"
d="M 63829.237073,21559.237399
63829.237073,19702.362028
61972.361702,19702.362028
61972.361702,21559.237399
Z" /> 
<path style="fill:#000000; fill-opacity:0.0; 
stroke:#000000; stroke-width:262.599333; stroke-opacity:1; 
stroke-linecap:round; stroke-linejoin:round;fill:none"
d="M 63829.237073,34220.783623
63829.237073,32363.908252
61972.361702,32363.908252
61972.361702,34220.783623
Z" /> 
</g>
<g style="fill:#000000; fill-opacity:0.0; 
stroke:#000000; stroke-width:70.972793; stroke-opacity:1; 
stroke-linecap:round; stroke-linejoin:round;">
<text x="50178.926289" y="48775.060673"
textLength="5275.644378" font-size="946.303667" lengthAdjust="spacingAndGlyphs"
text-anchor="start" opacity="0">Drill Map:</text>
<g class="stroked-text"><desc>Drill Map:</desc>
<path d="M50383 48741
L50383 48031
L50552 48031
L50653 48065
L50721 48132
L50755 48200
L50788 48335
L50788 48437
L50755 48572
L50721 48639
L50653 48707
L50552 48741
L50383 48741
" />
<path d="M51093 48741
L51093 48268
" />
<path d="M51093 48403
L51126 48335
L51160 48301
L51228 48268
L51295 48268
" />
<path d="M51532 48741
L51532 48268
" />
<path d="M51532 48031
L51498 48065
L51532 48099
L51566 48065
L51532 48031
L51532 48099
" />
<path d="M51971 48741
L51904 48707
L51870 48639
L51870 48031
" />
<path d="M52343 48741
L52276 48707
L52242 48639
L52242 48031
" />
<path d="M53154 48741
L53154 48031
L53391 48538
L53627 48031
L53627 48741
" />
<path d="M54270 48741
L54270 48369
L54236 48301
L54168 48268
L54033 48268
L53965 48301
" />
<path d="M54270 48707
L54202 48741
L54033 48741
L53965 48707
L53932 48639
L53932 48572
L53965 48504
L54033 48470
L54202 48470
L54270 48437
" />
<path d="M54607 48268
L54607 48977
" />
<path d="M54607 48301
L54675 48268
L54810 48268
L54878 48301
L54912 48335
L54945 48403
L54945 48606
L54912 48673
L54878 48707
L54810 48741
L54675 48741
L54607 48707
" />
<path d="M55250 48673
L55283 48707
L55250 48741
L55216 48707
L55250 48673
L55250 48741
" />
<path d="M55250 48301
L55283 48335
L55250 48369
L55216 48335
L55250 48301
L55250 48369
" />
</g><path d="M48759 49555
L49469 50265
" />
<path d="M49469 49555
L48759 50265
" />
<text x="50178.926289" y="50265.489321"
textLength="23660.977067" font-size="946.303667" lengthAdjust="spacingAndGlyphs"
text-anchor="start" opacity="0">3.200mm / 0.1260" (5 holes) (not plated)</text>
<g class="stroked-text"><desc>3.200mm / 0.1260" (5 holes) (not plated)</desc>
<path d="M50315 49521
L50755 49521
L50518 49792
L50619 49792
L50687 49826
L50721 49859
L50755 49927
L50755 50096
L50721 50164
L50687 50197
L50619 50231
L50417 50231
L50349 50197
L50315 50164
" />
<path d="M51059 50164
L51093 50197
L51059 50231
L51025 50197
L51059 50164
L51059 50231
" />
<path d="M51363 49589
L51397 49555
L51464 49521
L51633 49521
L51701 49555
L51735 49589
L51769 49657
L51769 49724
L51735 49826
L51329 50231
L51769 50231
" />
<path d="M52208 49521
L52276 49521
L52343 49555
L52377 49589
L52411 49657
L52444 49792
L52444 49961
L52411 50096
L52377 50164
L52343 50197
L52276 50231
L52208 50231
L52140 50197
L52107 50164
L52073 50096
L52039 49961
L52039 49792
L52073 49657
L52107 49589
L52140 49555
L52208 49521
" />
<path d="M52884 49521
L52951 49521
L53019 49555
L53053 49589
L53087 49657
L53120 49792
L53120 49961
L53087 50096
L53053 50164
L53019 50197
L52951 50231
L52884 50231
L52816 50197
L52782 50164
L52749 50096
L52715 49961
L52715 49792
L52749 49657
L52782 49589
L52816 49555
L52884 49521
" />
<path d="M53425 50231
L53425 49758
" />
<path d="M53425 49826
L53458 49792
L53526 49758
L53627 49758
L53695 49792
L53729 49859
L53729 50231
" />
<path d="M53729 49859
L53763 49792
L53830 49758
L53932 49758
L53999 49792
L54033 49859
L54033 50231
" />
<path d="M54371 50231
L54371 49758
" />
<path d="M54371 49826
L54405 49792
L54472 49758
L54574 49758
L54641 49792
L54675 49859
L54675 50231
" />
<path d="M54675 49859
L54709 49792
L54776 49758
L54878 49758
L54945 49792
L54979 49859
L54979 50231
" />
<path d="M56365 49488
L55757 50400
" />
<path d="M57277 49521
L57345 49521
L57413 49555
L57446 49589
L57480 49657
L57514 49792
L57514 49961
L57480 50096
L57446 50164
L57413 50197
L57345 50231
L57277 50231
L57210 50197
L57176 50164
L57142 50096
L57108 49961
L57108 49792
L57142 49657
L57176 49589
L57210 49555
L57277 49521
" />
<path d="M57818 50164
L57852 50197
L57818 50231
L57784 50197
L57818 50164
L57818 50231
" />
<path d="M58528 50231
L58122 50231
" />
<path d="M58325 50231
L58325 49521
L58257 49623
L58190 49690
L58122 49724
" />
<path d="M58798 49589
L58832 49555
L58900 49521
L59069 49521
L59136 49555
L59170 49589
L59204 49657
L59204 49724
L59170 49826
L58764 50231
L59204 50231
" />
<path d="M59812 49521
L59677 49521
L59609 49555
L59576 49589
L59508 49690
L59474 49826
L59474 50096
L59508 50164
L59542 50197
L59609 50231
L59745 50231
L59812 50197
L59846 50164
L59880 50096
L59880 49927
L59846 49859
L59812 49826
L59745 49792
L59609 49792
L59542 49826
L59508 49859
L59474 49927
" />
<path d="M60319 49521
L60387 49521
L60454 49555
L60488 49589
L60522 49657
L60556 49792
L60556 49961
L60522 50096
L60488 50164
L60454 50197
L60387 50231
L60319 50231
L60251 50197
L60218 50164
L60184 50096
L60150 49961
L60150 49792
L60184 49657
L60218 49589
L60251 49555
L60319 49521
" />
<path d="M60826 49521
L60826 49657
" />
<path d="M61096 49521
L61096 49657
" />
<path d="M62144 50502
L62110 50468
L62043 50366
L62009 50299
L61975 50197
L61941 50028
L61941 49893
L61975 49724
L62009 49623
L62043 49555
L62110 49454
L62144 49420
" />
<path d="M62752 49521
L62414 49521
L62381 49859
L62414 49826
L62482 49792
L62651 49792
L62719 49826
L62752 49859
L62786 49927
L62786 50096
L62752 50164
L62719 50197
L62651 50231
L62482 50231
L62414 50197
L62381 50164
" />
<path d="M63631 50231
L63631 49521
" />
<path d="M63935 50231
L63935 49859
L63902 49792
L63834 49758
L63733 49758
L63665 49792
L63631 49826
" />
<path d="M64375 50231
L64307 50197
L64273 50164
L64239 50096
L64239 49893
L64273 49826
L64307 49792
L64375 49758
L64476 49758
L64544 49792
L64577 49826
L64611 49893
L64611 50096
L64577 50164
L64544 50197
L64476 50231
L64375 50231
" />
<path d="M65017 50231
L64949 50197
L64915 50130
L64915 49521
" />
<path d="M65558 50197
L65490 50231
L65355 50231
L65287 50197
L65253 50130
L65253 49859
L65287 49792
L65355 49758
L65490 49758
L65558 49792
L65591 49859
L65591 49927
L65253 49995
" />
<path d="M65862 50197
L65929 50231
L66065 50231
L66132 50197
L66166 50130
L66166 50096
L66132 50028
L66065 49995
L65963 49995
L65896 49961
L65862 49893
L65862 49859
L65896 49792
L65963 49758
L66065 49758
L66132 49792
" />
<path d="M66402 50502
L66436 50468
L66504 50366
L66538 50299
L66571 50197
L66605 50028
L66605 49893
L66571 49724
L66538 49623
L66504 49555
L66436 49454
L66402 49420
" />
<path d="M67687 50502
L67653 50468
L67585 50366
L67552 50299
L67518 50197
L67484 50028
L67484 49893
L67518 49724
L67552 49623
L67585 49555
L67653 49454
L67687 49420
" />
<path d="M67957 49758
L67957 50231
" />
<path d="M67957 49826
L67991 49792
L68059 49758
L68160 49758
L68227 49792
L68261 49859
L68261 50231
" />
<path d="M68701 50231
L68633 50197
L68599 50164
L68565 50096
L68565 49893
L68599 49826
L68633 49792
L68701 49758
L68802 49758
L68870 49792
L68903 49826
L68937 49893
L68937 50096
L68903 50164
L68870 50197
L68802 50231
L68701 50231
" />
<path d="M69140 49758
L69410 49758
" />
<path d="M69241 49521
L69241 50130
L69275 50197
L69343 50231
L69410 50231
" />
<path d="M70188 49758
L70188 50468
" />
<path d="M70188 49792
L70255 49758
L70390 49758
L70458 49792
L70492 49826
L70526 49893
L70526 50096
L70492 50164
L70458 50197
L70390 50231
L70255 50231
L70188 50197
" />
<path d="M70931 50231
L70864 50197
L70830 50130
L70830 49521
" />
<path d="M71506 50231
L71506 49859
L71472 49792
L71404 49758
L71269 49758
L71202 49792
" />
<path d="M71506 50197
L71438 50231
L71269 50231
L71202 50197
L71168 50130
L71168 50062
L71202 49995
L71269 49961
L71438 49961
L71506 49927
" />
<path d="M71742 49758
L72013 49758
" />
<path d="M71844 49521
L71844 50130
L71878 50197
L71945 50231
L72013 50231
" />
<path d="M72520 50197
L72452 50231
L72317 50231
L72249 50197
L72215 50130
L72215 49859
L72249 49792
L72317 49758
L72452 49758
L72520 49792
L72553 49859
L72553 49927
L72215 49995
" />
<path d="M73162 50231
L73162 49521
" />
<path d="M73162 50197
L73094 50231
L72959 50231
L72891 50197
L72858 50164
L72824 50096
L72824 49893
L72858 49826
L72891 49792
L72959 49758
L73094 49758
L73162 49792
" />
<path d="M73432 50502
L73466 50468
L73534 50366
L73567 50299
L73601 50197
L73635 50028
L73635 49893
L73601 49724
L73567 49623
L73534 49555
L73466 49454
L73432 49420
" />
</g><circle cx="49114.334398" cy="51085.026708" r="354.863964" /> 
<text x="50178.926289" y="51439.890671"
textLength="23660.977067" font-size="946.303667" lengthAdjust="spacingAndGlyphs"
text-anchor="start" opacity="0">5.000mm / 0.1969" (2 holes) (not plated)</text>
<g class="stroked-text"><desc>5.000mm / 0.1969" (2 holes) (not plated)</desc>
<path d="M50721 50696
L50383 50696
L50349 51034
L50383 51000
L50450 50966
L50619 50966
L50687 51000
L50721 51034
L50755 51101
L50755 51270
L50721 51338
L50687 51372
L50619 51406
L50450 51406
L50383 51372
L50349 51338
" />
<path d="M51059 51338
L51093 51372
L51059 51406
L51025 51372
L51059 51338
L51059 51406
" />
<path d="M51532 50696
L51600 50696
L51667 50730
L51701 50763
L51735 50831
L51769 50966
L51769 51135
L51735 51270
L51701 51338
L51667 51372
L51600 51406
L51532 51406
L51464 51372
L51431 51338
L51397 51270
L51363 51135
L51363 50966
L51397 50831
L51431 50763
L51464 50730
L51532 50696
" />
<path d="M52208 50696
L52276 50696
L52343 50730
L52377 50763
L52411 50831
L52444 50966
L52444 51135
L52411 51270
L52377 51338
L52343 51372
L52276 51406
L52208 51406
L52140 51372
L52107 51338
L52073 51270
L52039 51135
L52039 50966
L52073 50831
L52107 50763
L52140 50730
L52208 50696
" />
<path d="M52884 50696
L52951 50696
L53019 50730
L53053 50763
L53087 50831
L53120 50966
L53120 51135
L53087 51270
L53053 51338
L53019 51372
L52951 51406
L52884 51406
L52816 51372
L52782 51338
L52749 51270
L52715 51135
L52715 50966
L52749 50831
L52782 50763
L52816 50730
L52884 50696
" />
<path d="M53425 51406
L53425 50932
" />
<path d="M53425 51000
L53458 50966
L53526 50932
L53627 50932
L53695 50966
L53729 51034
L53729 51406
" />
<path d="M53729 51034
L53763 50966
L53830 50932
L53932 50932
L53999 50966
L54033 51034
L54033 51406
" />
<path d="M54371 51406
L54371 50932
" />
<path d="M54371 51000
L54405 50966
L54472 50932
L54574 50932
L54641 50966
L54675 51034
L54675 51406
" />
<path d="M54675 51034
L54709 50966
L54776 50932
L54878 50932
L54945 50966
L54979 51034
L54979 51406
" />
<path d="M56365 50662
L55757 51575
" />
<path d="M57277 50696
L57345 50696
L57413 50730
L57446 50763
L57480 50831
L57514 50966
L57514 51135
L57480 51270
L57446 51338
L57413 51372
L57345 51406
L57277 51406
L57210 51372
L57176 51338
L57142 51270
L57108 51135
L57108 50966
L57142 50831
L57176 50763
L57210 50730
L57277 50696
" />
<path d="M57818 51338
L57852 51372
L57818 51406
L57784 51372
L57818 51338
L57818 51406
" />
<path d="M58528 51406
L58122 51406
" />
<path d="M58325 51406
L58325 50696
L58257 50797
L58190 50865
L58122 50899
" />
<path d="M58866 51406
L59001 51406
L59069 51372
L59102 51338
L59170 51237
L59204 51101
L59204 50831
L59170 50763
L59136 50730
L59069 50696
L58933 50696
L58866 50730
L58832 50763
L58798 50831
L58798 51000
L58832 51068
L58866 51101
L58933 51135
L59069 51135
L59136 51101
L59170 51068
L59204 51000
" />
<path d="M59812 50696
L59677 50696
L59609 50730
L59576 50763
L59508 50865
L59474 51000
L59474 51270
L59508 51338
L59542 51372
L59609 51406
L59745 51406
L59812 51372
L59846 51338
L59880 51270
L59880 51101
L59846 51034
L59812 51000
L59745 50966
L59609 50966
L59542 51000
L59508 51034
L59474 51101
" />
<path d="M60218 51406
L60353 51406
L60420 51372
L60454 51338
L60522 51237
L60556 51101
L60556 50831
L60522 50763
L60488 50730
L60420 50696
L60285 50696
L60218 50730
L60184 50763
L60150 50831
L60150 51000
L60184 51068
L60218 51101
L60285 51135
L60420 51135
L60488 51101
L60522 51068
L60556 51000
" />
<path d="M60826 50696
L60826 50831
" />
<path d="M61096 50696
L61096 50831
" />
<path d="M62144 51676
L62110 51642
L62043 51541
L62009 51473
L61975 51372
L61941 51203
L61941 51068
L61975 50899
L62009 50797
L62043 50730
L62110 50628
L62144 50594
" />
<path d="M62381 50763
L62414 50730
L62482 50696
L62651 50696
L62719 50730
L62752 50763
L62786 50831
L62786 50899
L62752 51000
L62347 51406
L62786 51406
" />
<path d="M63631 51406
L63631 50696
" />
<path d="M63935 51406
L63935 51034
L63902 50966
L63834 50932
L63733 50932
L63665 50966
L63631 51000
" />
<path d="M64375 51406
L64307 51372
L64273 51338
L64239 51270
L64239 51068
L64273 51000
L64307 50966
L64375 50932
L64476 50932
L64544 50966
L64577 51000
L64611 51068
L64611 51270
L64577 51338
L64544 51372
L64476 51406
L64375 51406
" />
<path d="M65017 51406
L64949 51372
L64915 51304
L64915 50696
" />
<path d="M65558 51372
L65490 51406
L65355 51406
L65287 51372
L65253 51304
L65253 51034
L65287 50966
L65355 50932
L65490 50932
L65558 50966
L65591 51034
L65591 51101
L65253 51169
" />
<path d="M65862 51372
L65929 51406
L66065 51406
L66132 51372
L66166 51304
L66166 51270
L66132 51203
L66065 51169
L65963 51169
L65896 51135
L65862 51068
L65862 51034
L65896 50966
L65963 50932
L66065 50932
L66132 50966
" />
<path d="M66402 51676
L66436 51642
L66504 51541
L66538 51473
L66571 51372
L66605 51203
L66605 51068
L66571 50899
L66538 50797
L66504 50730
L66436 50628
L66402 50594
" />
<path d="M67687 51676
L67653 51642
L67585 51541
L67552 51473
L67518 51372
L67484 51203
L67484 51068
L67518 50899
L67552 50797
L67585 50730
L67653 50628
L67687 50594
" />
<path d="M67957 50932
L67957 51406
" />
<path d="M67957 51000
L67991 50966
L68059 50932
L68160 50932
L68227 50966
L68261 51034
L68261 51406
" />
<path d="M68701 51406
L68633 51372
L68599 51338
L68565 51270
L68565 51068
L68599 51000
L68633 50966
L68701 50932
L68802 50932
L68870 50966
L68903 51000
L68937 51068
L68937 51270
L68903 51338
L68870 51372
L68802 51406
L68701 51406
" />
<path d="M69140 50932
L69410 50932
" />
<path d="M69241 50696
L69241 51304
L69275 51372
L69343 51406
L69410 51406
" />
<path d="M70188 50932
L70188 51642
" />
<path d="M70188 50966
L70255 50932
L70390 50932
L70458 50966
L70492 51000
L70526 51068
L70526 51270
L70492 51338
L70458 51372
L70390 51406
L70255 51406
L70188 51372
" />
<path d="M70931 51406
L70864 51372
L70830 51304
L70830 50696
" />
<path d="M71506 51406
L71506 51034
L71472 50966
L71404 50932
L71269 50932
L71202 50966
" />
<path d="M71506 51372
L71438 51406
L71269 51406
L71202 51372
L71168 51304
L71168 51237
L71202 51169
L71269 51135
L71438 51135
L71506 51101
" />
<path d="M71742 50932
L72013 50932
" />
<path d="M71844 50696
L71844 51304
L71878 51372
L71945 51406
L72013 51406
" />
<path d="M72520 51372
L72452 51406
L72317 51406
L72249 51372
L72215 51304
L72215 51034
L72249 50966
L72317 50932
L72452 50932
L72520 50966
L72553 51034
L72553 51101
L72215 51169
" />
<path d="M73162 51406
L73162 50696
" />
<path d="M73162 51372
L73094 51406
L72959 51406
L72891 51372
L72858 51338
L72824 51270
L72824 51068
L72858 51000
L72891 50966
L72959 50932
L73094 50932
L73162 50966
" />
<path d="M73432 51676
L73466 51642
L73534 51541
L73567 51473
L73601 51372
L73635 51203
L73635 51068
L73601 50899
L73567 50797
L73534 50730
L73466 50628
L73432 50594
" />
</g><path d="M49114 51904
L49114 52614
" />
<path d="M48759 52259
L49469 52259
" />
<text x="50178.926289" y="52614.292022"
textLength="23660.977067" font-size="946.303667" lengthAdjust="spacingAndGlyphs"
text-anchor="start" opacity="0">6.400mm / 0.2520" (9 holes) (not plated)</text>
<g class="stroked-text"><desc>6.400mm / 0.2520" (9 holes) (not plated)</desc>
<path d="M50687 51870
L50552 51870
L50484 51904
L50450 51938
L50383 52039
L50349 52174
L50349 52445
L50383 52512
L50417 52546
L50484 52580
L50619 52580
L50687 52546
L50721 52512
L50755 52445
L50755 52276
L50721 52208
L50687 52174
L50619 52141
L50484 52141
L50417 52174
L50383 52208
L50349 52276
" />
<path d="M51059 52512
L51093 52546
L51059 52580
L51025 52546
L51059 52512
L51059 52580
" />
<path d="M51701 52107
L51701 52580
" />
<path d="M51532 51836
L51363 52343
L51802 52343
" />
<path d="M52208 51870
L52276 51870
L52343 51904
L52377 51938
L52411 52005
L52444 52141
L52444 52310
L52411 52445
L52377 52512
L52343 52546
L52276 52580
L52208 52580
L52140 52546
L52107 52512
L52073 52445
L52039 52310
L52039 52141
L52073 52005
L52107 51938
L52140 51904
L52208 51870
" />
<path d="M52884 51870
L52951 51870
L53019 51904
L53053 51938
L53087 52005
L53120 52141
L53120 52310
L53087 52445
L53053 52512
L53019 52546
L52951 52580
L52884 52580
L52816 52546
L52782 52512
L52749 52445
L52715 52310
L52715 52141
L52749 52005
L52782 51938
L52816 51904
L52884 51870
" />
<path d="M53425 52580
L53425 52107
" />
<path d="M53425 52174
L53458 52141
L53526 52107
L53627 52107
L53695 52141
L53729 52208
L53729 52580
" />
<path d="M53729 52208
L53763 52141
L53830 52107
L53932 52107
L53999 52141
L54033 52208
L54033 52580
" />
<path d="M54371 52580
L54371 52107
" />
<path d="M54371 52174
L54405 52141
L54472 52107
L54574 52107
L54641 52141
L54675 52208
L54675 52580
" />
<path d="M54675 52208
L54709 52141
L54776 52107
L54878 52107
L54945 52141
L54979 52208
L54979 52580
" />
<path d="M56365 51836
L55757 52749
" />
<path d="M57277 51870
L57345 51870
L57413 51904
L57446 51938
L57480 52005
L57514 52141
L57514 52310
L57480 52445
L57446 52512
L57413 52546
L57345 52580
L57277 52580
L57210 52546
L57176 52512
L57142 52445
L57108 52310
L57108 52141
L57142 52005
L57176 51938
L57210 51904
L57277 51870
" />
<path d="M57818 52512
L57852 52546
L57818 52580
L57784 52546
L57818 52512
L57818 52580
" />
<path d="M58122 51938
L58156 51904
L58224 51870
L58393 51870
L58460 51904
L58494 51938
L58528 52005
L58528 52073
L58494 52174
L58089 52580
L58528 52580
" />
<path d="M59170 51870
L58832 51870
L58798 52208
L58832 52174
L58900 52141
L59069 52141
L59136 52174
L59170 52208
L59204 52276
L59204 52445
L59170 52512
L59136 52546
L59069 52580
L58900 52580
L58832 52546
L58798 52512
" />
<path d="M59474 51938
L59508 51904
L59576 51870
L59745 51870
L59812 51904
L59846 51938
L59880 52005
L59880 52073
L59846 52174
L59440 52580
L59880 52580
" />
<path d="M60319 51870
L60387 51870
L60454 51904
L60488 51938
L60522 52005
L60556 52141
L60556 52310
L60522 52445
L60488 52512
L60454 52546
L60387 52580
L60319 52580
L60251 52546
L60218 52512
L60184 52445
L60150 52310
L60150 52141
L60184 52005
L60218 51938
L60251 51904
L60319 51870
" />
<path d="M60826 51870
L60826 52005
" />
<path d="M61096 51870
L61096 52005
" />
<path d="M62144 52850
L62110 52817
L62043 52715
L62009 52648
L61975 52546
L61941 52377
L61941 52242
L61975 52073
L62009 51972
L62043 51904
L62110 51803
L62144 51769
" />
<path d="M62448 52580
L62583 52580
L62651 52546
L62685 52512
L62752 52411
L62786 52276
L62786 52005
L62752 51938
L62719 51904
L62651 51870
L62516 51870
L62448 51904
L62414 51938
L62381 52005
L62381 52174
L62414 52242
L62448 52276
L62516 52310
L62651 52310
L62719 52276
L62752 52242
L62786 52174
" />
<path d="M63631 52580
L63631 51870
" />
<path d="M63935 52580
L63935 52208
L63902 52141
L63834 52107
L63733 52107
L63665 52141
L63631 52174
" />
<path d="M64375 52580
L64307 52546
L64273 52512
L64239 52445
L64239 52242
L64273 52174
L64307 52141
L64375 52107
L64476 52107
L64544 52141
L64577 52174
L64611 52242
L64611 52445
L64577 52512
L64544 52546
L64476 52580
L64375 52580
" />
<path d="M65017 52580
L64949 52546
L64915 52479
L64915 51870
" />
<path d="M65558 52546
L65490 52580
L65355 52580
L65287 52546
L65253 52479
L65253 52208
L65287 52141
L65355 52107
L65490 52107
L65558 52141
L65591 52208
L65591 52276
L65253 52343
" />
<path d="M65862 52546
L65929 52580
L66065 52580
L66132 52546
L66166 52479
L66166 52445
L66132 52377
L66065 52343
L65963 52343
L65896 52310
L65862 52242
L65862 52208
L65896 52141
L65963 52107
L66065 52107
L66132 52141
" />
<path d="M66402 52850
L66436 52817
L66504 52715
L66538 52648
L66571 52546
L66605 52377
L66605 52242
L66571 52073
L66538 51972
L66504 51904
L66436 51803
L66402 51769
" />
<path d="M67687 52850
L67653 52817
L67585 52715
L67552 52648
L67518 52546
L67484 52377
L67484 52242
L67518 52073
L67552 51972
L67585 51904
L67653 51803
L67687 51769
" />
<path d="M67957 52107
L67957 52580
" />
<path d="M67957 52174
L67991 52141
L68059 52107
L68160 52107
L68227 52141
L68261 52208
L68261 52580
" />
<path d="M68701 52580
L68633 52546
L68599 52512
L68565 52445
L68565 52242
L68599 52174
L68633 52141
L68701 52107
L68802 52107
L68870 52141
L68903 52174
L68937 52242
L68937 52445
L68903 52512
L68870 52546
L68802 52580
L68701 52580
" />
<path d="M69140 52107
L69410 52107
" />
<path d="M69241 51870
L69241 52479
L69275 52546
L69343 52580
L69410 52580
" />
<path d="M70188 52107
L70188 52817
" />
<path d="M70188 52141
L70255 52107
L70390 52107
L70458 52141
L70492 52174
L70526 52242
L70526 52445
L70492 52512
L70458 52546
L70390 52580
L70255 52580
L70188 52546
" />
<path d="M70931 52580
L70864 52546
L70830 52479
L70830 51870
" />
<path d="M71506 52580
L71506 52208
L71472 52141
L71404 52107
L71269 52107
L71202 52141
" />
<path d="M71506 52546
L71438 52580
L71269 52580
L71202 52546
L71168 52479
L71168 52411
L71202 52343
L71269 52310
L71438 52310
L71506 52276
" />
<path d="M71742 52107
L72013 52107
" />
<path d="M71844 51870
L71844 52479
L71878 52546
L71945 52580
L72013 52580
" />
<path d="M72520 52546
L72452 52580
L72317 52580
L72249 52546
L72215 52479
L72215 52208
L72249 52141
L72317 52107
L72452 52107
L72520 52141
L72553 52208
L72553 52276
L72215 52343
" />
<path d="M73162 52580
L73162 51870
" />
<path d="M73162 52546
L73094 52580
L72959 52580
L72891 52546
L72858 52512
L72824 52445
L72824 52242
L72858 52174
L72891 52141
L72959 52107
L73094 52107
L73162 52141
" />
<path d="M73432 52850
L73466 52817
L73534 52715
L73567 52648
L73601 52546
L73635 52377
L73635 52242
L73601 52073
L73567 51972
L73534 51904
L73466 51803
L73432 51769
" />
</g><path style="fill:#000000; fill-opacity:0.0; 
stroke:#000000; stroke-width:70.972793; stroke-opacity:1; 
stroke-linecap:round; stroke-linejoin:round;fill:none"
d="M 49365.263675,53684.758686
49365.263675,53182.900133
48863.405122,53182.900133
48863.405122,53684.758686
Z" /> 
<text x="50178.926289" y="53788.693373"
textLength="23660.977067" font-size="946.303667" lengthAdjust="spacingAndGlyphs"
text-anchor="start" opacity="0">7.400mm / 0.2913" (5 holes) (not plated)</text>
<g class="stroked-text"><desc>7.400mm / 0.2913" (5 holes) (not plated)</desc>
<path d="M50315 53045
L50788 53045
L50484 53754
" />
<path d="M51059 53687
L51093 53721
L51059 53754
L51025 53721
L51059 53687
L51059 53754
" />
<path d="M51701 53281
L51701 53754
" />
<path d="M51532 53011
L51363 53518
L51802 53518
" />
<path d="M52208 53045
L52276 53045
L52343 53078
L52377 53112
L52411 53180
L52444 53315
L52444 53484
L52411 53619
L52377 53687
L52343 53721
L52276 53754
L52208 53754
L52140 53721
L52107 53687
L52073 53619
L52039 53484
L52039 53315
L52073 53180
L52107 53112
L52140 53078
L52208 53045
" />
<path d="M52884 53045
L52951 53045
L53019 53078
L53053 53112
L53087 53180
L53120 53315
L53120 53484
L53087 53619
L53053 53687
L53019 53721
L52951 53754
L52884 53754
L52816 53721
L52782 53687
L52749 53619
L52715 53484
L52715 53315
L52749 53180
L52782 53112
L52816 53078
L52884 53045
" />
<path d="M53425 53754
L53425 53281
" />
<path d="M53425 53349
L53458 53315
L53526 53281
L53627 53281
L53695 53315
L53729 53383
L53729 53754
" />
<path d="M53729 53383
L53763 53315
L53830 53281
L53932 53281
L53999 53315
L54033 53383
L54033 53754
" />
<path d="M54371 53754
L54371 53281
" />
<path d="M54371 53349
L54405 53315
L54472 53281
L54574 53281
L54641 53315
L54675 53383
L54675 53754
" />
<path d="M54675 53383
L54709 53315
L54776 53281
L54878 53281
L54945 53315
L54979 53383
L54979 53754
" />
<path d="M56365 53011
L55757 53923
" />
<path d="M57277 53045
L57345 53045
L57413 53078
L57446 53112
L57480 53180
L57514 53315
L57514 53484
L57480 53619
L57446 53687
L57413 53721
L57345 53754
L57277 53754
L57210 53721
L57176 53687
L57142 53619
L57108 53484
L57108 53315
L57142 53180
L57176 53112
L57210 53078
L57277 53045
" />
<path d="M57818 53687
L57852 53721
L57818 53754
L57784 53721
L57818 53687
L57818 53754
" />
<path d="M58122 53112
L58156 53078
L58224 53045
L58393 53045
L58460 53078
L58494 53112
L58528 53180
L58528 53247
L58494 53349
L58089 53754
L58528 53754
" />
<path d="M58866 53754
L59001 53754
L59069 53721
L59102 53687
L59170 53585
L59204 53450
L59204 53180
L59170 53112
L59136 53078
L59069 53045
L58933 53045
L58866 53078
L58832 53112
L58798 53180
L58798 53349
L58832 53416
L58866 53450
L58933 53484
L59069 53484
L59136 53450
L59170 53416
L59204 53349
" />
<path d="M59880 53754
L59474 53754
" />
<path d="M59677 53754
L59677 53045
L59609 53146
L59542 53214
L59474 53247
" />
<path d="M60116 53045
L60556 53045
L60319 53315
L60420 53315
L60488 53349
L60522 53383
L60556 53450
L60556 53619
L60522 53687
L60488 53721
L60420 53754
L60218 53754
L60150 53721
L60116 53687
" />
<path d="M60826 53045
L60826 53180
" />
<path d="M61096 53045
L61096 53180
" />
<path d="M62144 54025
L62110 53991
L62043 53890
L62009 53822
L61975 53721
L61941 53552
L61941 53416
L61975 53247
L62009 53146
L62043 53078
L62110 52977
L62144 52943
" />
<path d="M62752 53045
L62414 53045
L62381 53383
L62414 53349
L62482 53315
L62651 53315
L62719 53349
L62752 53383
L62786 53450
L62786 53619
L62752 53687
L62719 53721
L62651 53754
L62482 53754
L62414 53721
L62381 53687
" />
<path d="M63631 53754
L63631 53045
" />
<path d="M63935 53754
L63935 53383
L63902 53315
L63834 53281
L63733 53281
L63665 53315
L63631 53349
" />
<path d="M64375 53754
L64307 53721
L64273 53687
L64239 53619
L64239 53416
L64273 53349
L64307 53315
L64375 53281
L64476 53281
L64544 53315
L64577 53349
L64611 53416
L64611 53619
L64577 53687
L64544 53721
L64476 53754
L64375 53754
" />
<path d="M65017 53754
L64949 53721
L64915 53653
L64915 53045
" />
<path d="M65558 53721
L65490 53754
L65355 53754
L65287 53721
L65253 53653
L65253 53383
L65287 53315
L65355 53281
L65490 53281
L65558 53315
L65591 53383
L65591 53450
L65253 53518
" />
<path d="M65862 53721
L65929 53754
L66065 53754
L66132 53721
L66166 53653
L66166 53619
L66132 53552
L66065 53518
L65963 53518
L65896 53484
L65862 53416
L65862 53383
L65896 53315
L65963 53281
L66065 53281
L66132 53315
" />
<path d="M66402 54025
L66436 53991
L66504 53890
L66538 53822
L66571 53721
L66605 53552
L66605 53416
L66571 53247
L66538 53146
L66504 53078
L66436 52977
L66402 52943
" />
<path d="M67687 54025
L67653 53991
L67585 53890
L67552 53822
L67518 53721
L67484 53552
L67484 53416
L67518 53247
L67552 53146
L67585 53078
L67653 52977
L67687 52943
" />
<path d="M67957 53281
L67957 53754
" />
<path d="M67957 53349
L67991 53315
L68059 53281
L68160 53281
L68227 53315
L68261 53383
L68261 53754
" />
<path d="M68701 53754
L68633 53721
L68599 53687
L68565 53619
L68565 53416
L68599 53349
L68633 53315
L68701 53281
L68802 53281
L68870 53315
L68903 53349
L68937 53416
L68937 53619
L68903 53687
L68870 53721
L68802 53754
L68701 53754
" />
<path d="M69140 53281
L69410 53281
" />
<path d="M69241 53045
L69241 53653
L69275 53721
L69343 53754
L69410 53754
" />
<path d="M70188 53281
L70188 53991
" />
<path d="M70188 53315
L70255 53281
L70390 53281
L70458 53315
L70492 53349
L70526 53416
L70526 53619
L70492 53687
L70458 53721
L70390 53754
L70255 53754
L70188 53721
" />
<path d="M70931 53754
L70864 53721
L70830 53653
L70830 53045
" />
<path d="M71506 53754
L71506 53383
L71472 53315
L71404 53281
L71269 53281
L71202 53315
" />
<path d="M71506 53721
L71438 53754
L71269 53754
L71202 53721
L71168 53653
L71168 53585
L71202 53518
L71269 53484
L71438 53484
L71506 53450
" />
<path d="M71742 53281
L72013 53281
" />
<path d="M71844 53045
L71844 53653
L71878 53721
L71945 53754
L72013 53754
" />
<path d="M72520 53721
L72452 53754
L72317 53754
L72249 53721
L72215 53653
L72215 53383
L72249 53315
L72317 53281
L72452 53281
L72520 53315
L72553 53383
L72553 53450
L72215 53518
" />
<path d="M73162 53754
L73162 53045
" />
<path d="M73162 53721
L73094 53754
L72959 53754
L72891 53721
L72858 53687
L72824 53619
L72824 53416
L72858 53349
L72891 53315
L72959 53281
L73094 53281
L73162 53315
" />
<path d="M73432 54025
L73466 53991
L73534 53890
L73567 53822
L73601 53721
L73635 53552
L73635 53416
L73601 53247
L73567 53146
L73534 53078
L73466 52977
L73432 52943
" />
</g></g> 
</svg>
