  0
SECTION
  2
HEADER
  9
$ACADVER
  1
AC1014
  9
$HANDSEED
  5
FFFF
  9
$INSUNITS
 70
     4
  9
$MEASUREMENT
 70
     1
  0
ENDSEC
  0
SECTION
  2
TABLES
  0
TABLE
  2
VPORT
  5
8
330
0
100
AcDbSymbolTable
 70
     4
  0
VPORT
  5
2E
330
8
100
AcDbSymbolTableRecord
100
AcDbViewportTableRecord
  2
*ACTIVE
 70
     0
 10
0.0
 20
0.0
 11
1.0
 21
1.0
 12
210.0
 22
148.5
 13
0.0
 23
0.0
 14
10.0
 24
10.0
 15
10.0
 25
10.0
 16
0.0
 26
0.0
 36
1.0
 17
0.0
 27
0.0
 37
0.0
 40
341.0
 41
1.24
 42
50.0
 43
0.0
 44
0.0
 50
0.0
 51
0.0
 71
     0
 72
   100
 73
     1
 74
     3
 75
     0
 76
     0
 77
     0
 78
     0
  0
ENDTAB
  0
TABLE
  2
LTYPE
  5
5
330
0
100
AcDbSymbolTable
 70
     1
  0
LTYPE
  5
14
330
5
100
AcDbSymbolTableRecord
100
AcDbLinetypeTableRecord
  2
BYBLOCK
 70
     0
  3

 72
    65
 73
     0
 40
0.0
  0
LTYPE
  5
15
330
5
100
AcDbSymbolTableRecord
100
AcDbLinetypeTableRecord
  2
BYLAYER
 70
     0
  3

 72
    65
 73
     0
 40
0.0
  0
LTYPE
  5
16
330
5
100
AcDbSymbolTableRecord
100
AcDbLinetypeTableRecord
  2
CONTINUOUS
 70
     0
  3
Solid line
 72
    65
 73
     0
 40
0.0
  0
ENDTAB
  0
TABLE
  2
LAYER
  5
2
100
AcDbSymbolTable
 70
16
  0
LAYER
  5
50
100
AcDbSymbolTableRecord
100
AcDbLayerTableRecord
  2
0
 70
0
  6
CONTINUOUS
  0
LAYER
  5
51
100
AcDbSymbolTableRecord
100
AcDbLayerTableRecord
  2
Helpers_2
 70
0
  6
CONTINUOUS
  0
LAYER
  5
52
100
AcDbSymbolTableRecord
100
AcDbLayerTableRecord
  2
Knob_Scale_Area
 70
0
  6
CONTINUOUS
  0
LAYER
  5
53
100
AcDbSymbolTableRecord
100
AcDbLayerTableRecord
  2
Jack_keepout
 70
0
  6
CONTINUOUS
  0
LAYER
  5
54
100
AcDbSymbolTableRecord
100
AcDbLayerTableRecord
  2
Frontpanel
 70
0
  6
CONTINUOUS
  0
LAYER
  5
55
100
AcDbSymbolTableRecord
100
AcDbLayerTableRecord
  2
Jack_Markings
 70
0
  6
CONTINUOUS
  0
LAYER
  5
56
100
AcDbSymbolTableRecord
100
AcDbLayerTableRecord
  2
Scales
 70
0
  6
CONTINUOUS
  0
LAYER
  5
57
100
AcDbSymbolTableRecord
100
AcDbLayerTableRecord
  2
Switch_Markings
 70
0
  6
CONTINUOUS
  0
LAYER
  5
58
100
AcDbSymbolTableRecord
100
AcDbLayerTableRecord
  2
Header_Slot_Markings
 70
0
  6
CONTINUOUS
  0
LAYER
  5
59
100
AcDbSymbolTableRecord
100
AcDbLayerTableRecord
  2
Schematic
 70
0
  6
CONTINUOUS
  0
LAYER
  5
5a
100
AcDbSymbolTableRecord
100
AcDbLayerTableRecord
  2
Text
 70
0
  6
CONTINUOUS
  0
LAYER
  5
5b
100
AcDbSymbolTableRecord
100
AcDbLayerTableRecord
  2
Helpers
 70
0
  6
CONTINUOUS
  0
LAYER
  5
5c
100
AcDbSymbolTableRecord
100
AcDbLayerTableRecord
  2
Knobs
 70
0
  6
CONTINUOUS
  0
LAYER
  5
5d
100
AcDbSymbolTableRecord
100
AcDbLayerTableRecord
  2
Holes
 70
0
  6
CONTINUOUS
  0
LAYER
  5
5e
100
AcDbSymbolTableRecord
100
AcDbLayerTableRecord
  2
Board_Outline
 70
0
  6
CONTINUOUS
  0
LAYER
  5
5f
100
AcDbSymbolTableRecord
100
AcDbLayerTableRecord
  2
Board_Outline_PCB
 70
0
  6
CONTINUOUS
  0
ENDTAB
  0
TABLE
  2
STYLE
  5
3
330
0
100
AcDbSymbolTable
 70
     1
  0
STYLE
  5
11
330
3
100
AcDbSymbolTableRecord
100
AcDbTextStyleTableRecord
  2
STANDARD
 70
     0
 40
0.0
 41
1.0
 50
0.0
 71
     0
 42
2.5
  3
txt
  4

  0
ENDTAB
  0
TABLE
  2
VIEW
  5
6
330
0
100
AcDbSymbolTable
 70
     0
  0
ENDTAB
  0
TABLE
  2
UCS
  5
7
330
0
100
AcDbSymbolTable
 70
     0
  0
ENDTAB
  0
TABLE
  2
APPID
  5
9
330
0
100
AcDbSymbolTable
 70
     2
  0
APPID
  5
12
330
9
100
AcDbSymbolTableRecord
100
AcDbRegAppTableRecord
  2
ACAD
 70
     0
  0
ENDTAB
  0
TABLE
  2
DIMSTYLE
  5
A
330
0
100
AcDbSymbolTable
 70
     1
  0
DIMSTYLE
105
27
330
A
100
AcDbSymbolTableRecord
100
AcDbDimStyleTableRecord
  2
ISO-25
 70
     0
  3

  4

  5

  6

  7

 40
1.0
 41
2.5
 42
0.625
 43
3.75
 44
1.25
 45
0.0
 46
0.0
 47
0.0
 48
0.0
140
2.5
141
2.5
142
0.0
143
0.03937007874016
144
1.0
145
0.0
146
1.0
147
0.625
 71
     0
 72
     0
 73
     0
 74
     0
 75
     0
 76
     0
 77
     1
 78
     8
170
     0
171
     3
172
     1
173
     0
174
     0
175
     0
176
     0
177
     0
178
     0
270
     2
271
     2
272
     2
273
     2
274
     3
340
11
275
     0
280
     0
281
     0
282
     0
283
     0
284
     8
285
     0
286
     0
287
     3
288
     0
  0
ENDTAB
  0
TABLE
  2
BLOCK_RECORD
  5
1
330
0
100
AcDbSymbolTable
 70
     1
  0
BLOCK_RECORD
  5
1F
330
1
100
AcDbSymbolTableRecord
100
AcDbBlockTableRecord
  2
*MODEL_SPACE
  0
BLOCK_RECORD
  5
1B
330
1
100
AcDbSymbolTableRecord
100
AcDbBlockTableRecord
  2
*PAPER_SPACE
  0
ENDTAB
  0
ENDSEC
  0
SECTION
  2
BLOCKS
  0
BLOCK
  5
20
330
1F
100
AcDbEntity
  8
0
100
AcDbBlockBegin
  2
*MODEL_SPACE
 70
     0
 10
0.0
 20
0.0
 30
0.0
  3
*MODEL_SPACE
  1

  0
ENDBLK
  5
21
330
1F
100
AcDbEntity
  8
0
100
AcDbBlockEnd
  0
BLOCK
  5
1C
330
1B
100
AcDbEntity
 67
     1
  8
0
100
AcDbBlockBegin
  2
*PAPER_SPACE
  1

  0
ENDBLK
  5
1D
330
1B
100
AcDbEntity
 67
     1
  8
0
100
AcDbBlockEnd
  0
ENDSEC
  0
SECTION
  2
ENTITIES
  0
SPLINE
  5
100
100
AcDbEntity
  8
Holes
 62
1
100
AcDbSpline
 70
0
 71
3
 72
25
 73
21
 74
19
 40
0.000000
 40
0.000000
 40
0.000000
 40
0.000000
 40
0.628028
 40
1.244872
 40
1.872900
 40
2.500927
 40
3.117771
 40
3.745799
 40
4.373827
 40
4.990671
 40
5.618699
 40
6.246726
 40
6.863571
 40
7.491598
 40
7.910438
 40
8.325812
 40
8.744651
 40
9.163491
 40
9.578865
 40
9.997704
 40
9.997704
 40
9.997704
 40
9.997704
 10
31.299780
 20
125.499994
 30
0.0
 10
31.324093
 20
125.289300
 30
0.0
 10
31.372284
 20
124.871664
 30
0.0
 10
31.741968
 20
124.339448
 30
0.0
 10
32.270542
 20
123.982837
 30
0.0
 10
32.900182
 20
123.858545
 30
0.0
 10
33.527703
 20
123.983420
 30
0.0
 10
34.060978
 20
124.338812
 30
0.0
 10
34.416351
 20
124.872014
 30
0.0
 10
34.541227
 20
125.499804
 30
0.0
 10
34.416952
 20
126.128427
 30
0.0
 10
34.060271
 20
126.660792
 30
0.0
 10
33.528313
 20
127.016487
 30
0.0
 10
32.969298
 20
127.127905
 30
0.0
 10
32.480966
 20
127.063136
 30
0.0
 10
32.090705
 20
126.901538
 30
0.0
 10
31.754990
 20
126.644432
 30
0.0
 10
31.499569
 20
126.309140
 30
0.0
 10
31.331691
 20
125.918875
 30
0.0
 10
31.310447
 20
125.640008
 30
0.0
 10
31.299780
 20
125.499994
 30
0.0
 11
31.299780
 21
125.499994
 31
0.0
 11
31.422991
 21
124.884171
 31
0.0
 11
31.765691
 21
124.371284
 31
0.0
 11
32.287487
 21
124.021788
 31
0.0
 11
32.903583
 21
123.899954
 31
0.0
 11
33.508575
 21
124.020294
 31
0.0
 11
34.031150
 21
124.368624
 31
0.0
 11
34.379481
 21
124.891199
 31
0.0
 11
34.499821
 21
125.496191
 31
0.0
 11
34.377987
 21
126.112288
 31
0.0
 11
34.028490
 21
126.634084
 31
0.0
 11
33.515603
 21
126.976784
 31
0.0
 11
32.899780
 21
127.099994
 31
0.0
 11
32.484543
 21
127.045177
 31
0.0
 11
32.100788
 21
126.886221
 31
0.0
 11
31.768410
 21
126.631365
 31
0.0
 11
31.513554
 21
126.298987
 31
0.0
 11
31.354597
 21
125.915232
 31
0.0
 11
31.299780
 21
125.499994
 31
0.0
  0
LWPOLYLINE
  5
101
100
AcDbEntity
  8
Holes
 62
1
100
AcDbPolyline
 90
1
 70
1
 10
31.299780
 20
125.499994
 30
0.0
  0
SPLINE
  5
102
100
AcDbEntity
  8
Holes
 62
1
100
AcDbSpline
 70
0
 71
3
 72
25
 73
21
 74
19
 40
0.000000
 40
0.000000
 40
0.000000
 40
0.000000
 40
0.628028
 40
1.244872
 40
1.872900
 40
2.500927
 40
3.117771
 40
3.745799
 40
4.373827
 40
4.990671
 40
5.618699
 40
6.246726
 40
6.863571
 40
7.491598
 40
7.910438
 40
8.325812
 40
8.744651
 40
9.163491
 40
9.578865
 40
9.997704
 40
9.997704
 40
9.997704
 40
9.997704
 10
5.899790
 20
125.499994
 30
0.0
 10
5.924103
 20
125.289300
 30
0.0
 10
5.972294
 20
124.871664
 30
0.0
 10
6.341978
 20
124.339448
 30
0.0
 10
6.870552
 20
123.982837
 30
0.0
 10
7.500192
 20
123.858545
 30
0.0
 10
8.127713
 20
123.983420
 30
0.0
 10
8.660988
 20
124.338812
 30
0.0
 10
9.016361
 20
124.872014
 30
0.0
 10
9.141237
 20
125.499804
 30
0.0
 10
9.016962
 20
126.128427
 30
0.0
 10
8.660281
 20
126.660792
 30
0.0
 10
8.128323
 20
127.016487
 30
0.0
 10
7.569308
 20
127.127905
 30
0.0
 10
7.080976
 20
127.063136
 30
0.0
 10
6.690715
 20
126.901538
 30
0.0
 10
6.355000
 20
126.644432
 30
0.0
 10
6.099579
 20
126.309140
 30
0.0
 10
5.931701
 20
125.918875
 30
0.0
 10
5.910457
 20
125.640008
 30
0.0
 10
5.899790
 20
125.499994
 30
0.0
 11
5.899790
 21
125.499994
 31
0.0
 11
6.023001
 21
124.884171
 31
0.0
 11
6.365701
 21
124.371284
 31
0.0
 11
6.887497
 21
124.021788
 31
0.0
 11
7.503593
 21
123.899954
 31
0.0
 11
8.108585
 21
124.020294
 31
0.0
 11
8.631160
 21
124.368624
 31
0.0
 11
8.979491
 21
124.891199
 31
0.0
 11
9.099831
 21
125.496191
 31
0.0
 11
8.977997
 21
126.112288
 31
0.0
 11
8.628500
 21
126.634084
 31
0.0
 11
8.115613
 21
126.976784
 31
0.0
 11
7.499790
 21
127.099994
 31
0.0
 11
7.084553
 21
127.045177
 31
0.0
 11
6.700798
 21
126.886221
 31
0.0
 11
6.368420
 21
126.631365
 31
0.0
 11
6.113564
 21
126.298987
 31
0.0
 11
5.954607
 21
125.915232
 31
0.0
 11
5.899790
 21
125.499994
 31
0.0
  0
LWPOLYLINE
  5
103
100
AcDbEntity
  8
Holes
 62
1
100
AcDbPolyline
 90
1
 70
1
 10
5.899790
 20
125.499994
 30
0.0
  0
SPLINE
  5
104
100
AcDbEntity
  8
Holes
 62
1
100
AcDbSpline
 70
0
 71
3
 72
22
 73
18
 74
16
 40
0.000000
 40
0.000000
 40
0.000000
 40
0.000000
 40
0.628028
 40
1.244872
 40
1.872900
 40
2.500927
 40
3.117771
 40
3.745799
 40
4.373827
 40
4.990671
 40
5.618699
 40
6.246726
 40
6.863571
 40
7.491598
 40
8.328173
 40
9.139934
 40
9.976509
 40
9.976509
 40
9.976509
 40
9.976509
 10
5.899790
 20
3.000000
 30
0.0
 10
5.924103
 20
2.789306
 30
0.0
 10
5.972294
 20
2.371669
 30
0.0
 10
6.341978
 20
1.839454
 30
0.0
 10
6.870552
 20
1.482842
 30
0.0
 10
7.500193
 20
1.358550
 30
0.0
 10
8.127713
 20
1.483425
 30
0.0
 10
8.660988
 20
1.838818
 30
0.0
 10
9.016361
 20
2.372019
 30
0.0
 10
9.141240
 20
2.999813
 30
0.0
 10
9.016951
 20
3.628418
 30
0.0
 10
8.660324
 20
4.160849
 30
0.0
 10
8.128164
 20
4.516302
 30
0.0
 10
7.429636
 20
4.656715
 30
0.0
 10
6.667098
 20
4.449788
 30
0.0
 10
6.030491
 20
3.837752
 30
0.0
 10
5.943792
 20
3.282039
 30
0.0
 10
5.899790
 20
3.000000
 30
0.0
 11
5.899790
 21
3.000000
 31
0.0
 11
6.023001
 21
2.384177
 31
0.0
 11
6.365701
 21
1.871290
 31
0.0
 11
6.887497
 21
1.521793
 31
0.0
 11
7.503593
 21
1.399959
 31
0.0
 11
8.108585
 21
1.520299
 31
0.0
 11
8.631160
 21
1.868630
 31
0.0
 11
8.979491
 21
2.391205
 31
0.0
 11
9.099831
 21
2.996197
 31
0.0
 11
8.977997
 21
3.612293
 31
0.0
 11
8.628500
 21
4.134089
 31
0.0
 11
8.115613
 21
4.476789
 31
0.0
 11
7.499790
 21
4.599999
 31
0.0
 11
6.692240
 21
4.381553
 31
0.0
 11
6.118237
 21
3.807550
 31
0.0
 11
5.899790
 21
3.000000
 31
0.0
  0
LWPOLYLINE
  5
105
100
AcDbEntity
  8
Holes
 62
1
100
AcDbPolyline
 90
1
 70
1
 10
5.899790
 20
3.000000
 30
0.0
  0
SPLINE
  5
106
100
AcDbEntity
  8
Holes
 62
1
100
AcDbSpline
 70
0
 71
3
 72
22
 73
18
 74
16
 40
0.000000
 40
0.000000
 40
0.000000
 40
0.000000
 40
0.628028
 40
1.244872
 40
1.872900
 40
2.500927
 40
3.117771
 40
3.745799
 40
4.373827
 40
4.990671
 40
5.618699
 40
6.246726
 40
6.863571
 40
7.491598
 40
8.328173
 40
9.139934
 40
9.976509
 40
9.976509
 40
9.976509
 40
9.976509
 10
31.299780
 20
3.000000
 30
0.0
 10
31.324093
 20
2.789306
 30
0.0
 10
31.372284
 20
2.371669
 30
0.0
 10
31.741968
 20
1.839454
 30
0.0
 10
32.270542
 20
1.482842
 30
0.0
 10
32.900183
 20
1.358550
 30
0.0
 10
33.527703
 20
1.483425
 30
0.0
 10
34.060978
 20
1.838818
 30
0.0
 10
34.416351
 20
2.372019
 30
0.0
 10
34.541230
 20
2.999813
 30
0.0
 10
34.416941
 20
3.628418
 30
0.0
 10
34.060314
 20
4.160849
 30
0.0
 10
33.528154
 20
4.516302
 30
0.0
 10
32.829626
 20
4.656715
 30
0.0
 10
32.067088
 20
4.449788
 30
0.0
 10
31.430481
 20
3.837752
 30
0.0
 10
31.343782
 20
3.282039
 30
0.0
 10
31.299780
 20
3.000000
 30
0.0
 11
31.299780
 21
3.000000
 31
0.0
 11
31.422991
 21
2.384177
 31
0.0
 11
31.765691
 21
1.871290
 31
0.0
 11
32.287487
 21
1.521793
 31
0.0
 11
32.903583
 21
1.399959
 31
0.0
 11
33.508575
 21
1.520299
 31
0.0
 11
34.031150
 21
1.868630
 31
0.0
 11
34.379481
 21
2.391205
 31
0.0
 11
34.499821
 21
2.996197
 31
0.0
 11
34.377987
 21
3.612293
 31
0.0
 11
34.028490
 21
4.134089
 31
0.0
 11
33.515603
 21
4.476789
 31
0.0
 11
32.899780
 21
4.599999
 31
0.0
 11
32.092230
 21
4.381553
 31
0.0
 11
31.518227
 21
3.807550
 31
0.0
 11
31.299780
 21
3.000000
 31
0.0
  0
LWPOLYLINE
  5
107
100
AcDbEntity
  8
Holes
 62
1
100
AcDbPolyline
 90
1
 70
1
 10
31.299780
 20
3.000000
 30
0.0
  0
SPLINE
  5
108
100
AcDbEntity
  8
Holes
 62
1
100
AcDbSpline
 70
0
 71
3
 72
25
 73
21
 74
19
 40
0.000000
 40
0.000000
 40
0.000000
 40
0.000000
 40
0.981293
 40
1.945113
 40
2.926406
 40
3.907699
 40
4.871518
 40
5.852812
 40
6.834105
 40
7.797924
 40
8.779218
 40
9.760511
 40
10.724330
 40
11.705624
 40
12.360061
 40
13.009082
 40
13.663519
 40
14.317956
 40
14.966978
 40
15.621415
 40
15.621415
 40
15.621415
 40
15.621415
 10
34.119790
 20
48.969998
 30
0.0
 10
33.790580
 20
48.932011
 30
0.0
 10
33.138023
 20
48.856711
 30
0.0
 10
32.306436
 20
48.279081
 30
0.0
 10
31.749230
 20
47.453184
 30
0.0
 10
31.555024
 20
46.469370
 30
0.0
 10
31.750142
 20
45.488870
 30
0.0
 10
32.305442
 20
44.655627
 30
0.0
 10
33.138571
 20
44.100356
 30
0.0
 10
34.119492
 20
43.905238
 30
0.0
 10
35.101715
 20
44.099417
 30
0.0
 10
35.933536
 20
44.656731
 30
0.0
 10
36.489310
 20
45.487916
 30
0.0
 10
36.663400
 20
46.361376
 30
0.0
 10
36.562199
 20
47.124396
 30
0.0
 10
36.309701
 20
47.734179
 30
0.0
 10
35.907974
 20
48.258733
 30
0.0
 10
35.384079
 20
48.657829
 30
0.0
 10
34.774291
 20
48.920139
 30
0.0
 10
34.338561
 20
48.953333
 30
0.0
 10
34.119790
 20
48.969998
 30
0.0
 11
34.119790
 21
48.969998
 31
0.0
 11
33.157566
 21
48.777483
 31
0.0
 11
32.356180
 21
48.242014
 31
0.0
 11
31.810092
 21
47.426707
 31
0.0
 11
31.619726
 21
46.464056
 31
0.0
 11
31.807758
 21
45.518756
 31
0.0
 11
32.352023
 21
44.702232
 31
0.0
 11
33.168547
 21
44.157967
 31
0.0
 11
34.113847
 21
43.969935
 31
0.0
 11
35.076498
 21
44.160301
 31
0.0
 11
35.891805
 21
44.706389
 31
0.0
 11
36.427274
 21
45.507775
 31
0.0
 11
36.619789
 21
46.469999
 31
0.0
 11
36.534138
 21
47.118807
 31
0.0
 11
36.285768
 21
47.718424
 31
0.0
 11
35.887557
 21
48.237766
 31
0.0
 11
35.368215
 21
48.635977
 31
0.0
 11
34.768598
 21
48.884347
 31
0.0
 11
34.119790
 21
48.969998
 31
0.0
  0
LWPOLYLINE
  5
109
100
AcDbEntity
  8
Holes
 62
1
100
AcDbPolyline
 90
1
 70
1
 10
34.119790
 20
48.969998
 30
0.0
  0
SPLINE
  5
10a
100
AcDbEntity
  8
Holes
 62
1
100
AcDbSpline
 70
0
 71
3
 72
25
 73
21
 74
19
 40
0.000000
 40
0.000000
 40
0.000000
 40
0.000000
 40
1.256056
 40
2.489744
 40
3.745800
 40
5.001855
 40
6.235544
 40
7.491600
 40
8.747655
 40
9.981344
 40
11.237400
 40
12.493455
 40
13.727144
 40
14.983199
 40
15.820879
 40
16.651626
 40
17.489306
 40
18.326985
 40
19.157733
 40
19.995412
 40
19.995412
 40
19.995412
 40
19.995412
 10
6.179780
 20
113.169999
 30
0.0
 10
5.758391
 20
113.121374
 30
0.0
 10
4.923118
 20
113.024991
 30
0.0
 10
3.858687
 20
112.285624
 30
0.0
 10
3.145463
 20
111.228476
 30
0.0
 10
2.896880
 20
109.969194
 30
0.0
 10
3.146631
 20
108.714153
 30
0.0
 10
3.857414
 20
107.647603
 30
0.0
 10
4.923820
 20
106.936856
 30
0.0
 10
6.179398
 20
106.687104
 30
0.0
 10
7.436644
 20
106.935653
 30
0.0
 10
8.501375
 20
107.649016
 30
0.0
 10
9.212766
 20
108.712933
 30
0.0
 10
9.435601
 20
109.830962
 30
0.0
 10
9.306063
 20
110.807627
 30
0.0
 10
8.982867
 20
111.588149
 30
0.0
 10
8.468656
 20
112.259579
 30
0.0
 10
7.798071
 20
112.770422
 30
0.0
 10
7.017542
 20
113.106178
 30
0.0
 10
6.459806
 20
113.148666
 30
0.0
 10
6.179780
 20
113.169999
 30
0.0
 11
6.179780
 21
113.169999
 31
0.0
 11
4.948134
 21
112.923579
 31
0.0
 11
3.922359
 21
112.238178
 31
0.0
 11
3.223366
 21
111.194586
 31
0.0
 11
2.979698
 21
109.962392
 31
0.0
 11
3.220378
 21
108.752408
 31
0.0
 11
3.917039
 21
107.707258
 31
0.0
 11
4.962189
 21
107.010597
 31
0.0
 11
6.172173
 21
106.769917
 31
0.0
 11
7.404367
 21
107.013585
 31
0.0
 11
8.447959
 21
107.712578
 31
0.0
 11
9.133360
 21
108.738353
 31
0.0
 11
9.379780
 21
109.969999
 31
0.0
 11
9.270146
 21
110.800473
 31
0.0
 11
8.952233
 21
111.567984
 31
0.0
 11
8.442521
 21
112.232740
 31
0.0
 11
7.777765
 21
112.742452
 31
0.0
 11
7.010254
 21
113.060365
 31
0.0
 11
6.179780
 21
113.169999
 31
0.0
  0
LWPOLYLINE
  5
10b
100
AcDbEntity
  8
Holes
 62
1
100
AcDbPolyline
 90
1
 70
1
 10
6.179780
 20
113.169999
 30
0.0
  0
SPLINE
  5
10c
100
AcDbEntity
  8
Holes
 62
1
100
AcDbSpline
 70
0
 71
3
 72
25
 73
21
 74
19
 40
0.000000
 40
0.000000
 40
0.000000
 40
0.000000
 40
1.452314
 40
2.878767
 40
4.331081
 40
5.783395
 40
7.209848
 40
8.662162
 40
10.114477
 40
11.540929
 40
12.993243
 40
14.445558
 40
15.872010
 40
17.324325
 40
18.292892
 40
19.253443
 40
20.222010
 40
21.190577
 40
22.151129
 40
23.119696
 40
23.119696
 40
23.119696
 40
23.119696
 10
29.039780
 20
113.736359
 30
0.0
 10
28.552549
 20
113.680137
 30
0.0
 10
27.586765
 20
113.568694
 30
0.0
 10
26.356016
 20
112.713800
 30
0.0
 10
25.531351
 20
111.491473
 30
0.0
 10
25.243926
 20
110.035428
 30
0.0
 10
25.532701
 20
108.584287
 30
0.0
 10
26.354545
 20
107.351089
 30
0.0
 10
27.587576
 20
106.529287
 30
0.0
 10
29.039339
 20
106.240512
 30
0.0
 10
30.493029
 20
106.527897
 30
0.0
 10
31.724124
 20
107.352722
 30
0.0
 10
32.546670
 20
108.582876
 30
0.0
 10
32.804323
 20
109.875598
 30
0.0
 10
32.654545
 20
111.004866
 30
0.0
 10
32.280849
 20
111.907345
 30
0.0
 10
31.686293
 20
112.683686
 30
0.0
 10
30.910928
 20
113.274348
 30
0.0
 10
30.008442
 20
113.662566
 30
0.0
 10
29.363561
 20
113.711693
 30
0.0
 10
29.039780
 20
113.736359
 30
0.0
 11
29.039780
 21
113.736359
 31
0.0
 11
27.615689
 21
113.451435
 31
0.0
 11
26.429637
 21
112.658941
 31
0.0
 11
25.621426
 21
111.452288
 31
0.0
 11
25.339685
 21
110.027563
 31
0.0
 11
25.617972
 21
108.628520
 31
0.0
 11
26.423485
 21
107.420064
 31
0.0
 11
27.631941
 21
106.614551
 31
0.0
 11
29.030984
 21
106.336264
 31
0.0
 11
30.455709
 21
106.618005
 31
0.0
 11
31.662362
 21
107.426216
 31
0.0
 11
32.454856
 21
108.612268
 31
0.0
 11
32.739780
 21
110.036359
 31
0.0
 11
32.613016
 21
110.996595
 31
0.0
 11
32.245428
 21
111.884029
 31
0.0
 11
31.656075
 21
112.652654
 31
0.0
 11
30.887450
 21
113.242007
 31
0.0
 11
30.000016
 21
113.609595
 31
0.0
 11
29.039780
 21
113.736359
 31
0.0
  0
LWPOLYLINE
  5
10d
100
AcDbEntity
  8
Holes
 62
1
100
AcDbPolyline
 90
1
 70
1
 10
29.039780
 20
113.736359
 30
0.0
  0
SPLINE
  5
10e
100
AcDbEntity
  8
Holes
 62
1
100
AcDbSpline
 70
0
 71
3
 72
25
 73
21
 74
19
 40
0.000000
 40
0.000000
 40
0.000000
 40
0.000000
 40
1.452314
 40
2.878767
 40
4.331081
 40
5.783395
 40
7.209848
 40
8.662162
 40
10.114477
 40
11.540929
 40
12.993243
 40
14.445558
 40
15.872010
 40
17.324325
 40
18.292892
 40
19.253443
 40
20.222010
 40
21.190577
 40
22.151129
 40
23.119696
 40
23.119696
 40
23.119696
 40
23.119696
 10
11.159790
 20
97.226368
 30
0.0
 10
10.672559
 20
97.170146
 30
0.0
 10
9.706775
 20
97.058703
 30
0.0
 10
8.476026
 20
96.203809
 30
0.0
 10
7.651361
 20
94.981482
 30
0.0
 10
7.363936
 20
93.525437
 30
0.0
 10
7.652711
 20
92.074296
 30
0.0
 10
8.474555
 20
90.841098
 30
0.0
 10
9.707586
 20
90.019296
 30
0.0
 10
11.159349
 20
89.730521
 30
0.0
 10
12.613039
 20
90.017906
 30
0.0
 10
13.844134
 20
90.842731
 30
0.0
 10
14.666680
 20
92.072885
 30
0.0
 10
14.924333
 20
93.365607
 30
0.0
 10
14.774555
 20
94.494875
 30
0.0
 10
14.400859
 20
95.397354
 30
0.0
 10
13.806303
 20
96.173695
 30
0.0
 10
13.030938
 20
96.764357
 30
0.0
 10
12.128452
 20
97.152575
 30
0.0
 10
11.483571
 20
97.201702
 30
0.0
 10
11.159790
 20
97.226368
 30
0.0
 11
11.159790
 21
97.226368
 31
0.0
 11
9.735699
 21
96.941444
 31
0.0
 11
8.549647
 21
96.148950
 31
0.0
 11
7.741436
 21
94.942297
 31
0.0
 11
7.459695
 21
93.517572
 31
0.0
 11
7.737982
 21
92.118529
 31
0.0
 11
8.543495
 21
90.910073
 31
0.0
 11
9.751951
 21
90.104560
 31
0.0
 11
11.150994
 21
89.826273
 31
0.0
 11
12.575719
 21
90.108014
 31
0.0
 11
13.782372
 21
90.916225
 31
0.0
 11
14.574866
 21
92.102277
 31
0.0
 11
14.859790
 21
93.526368
 31
0.0
 11
14.733026
 21
94.486604
 31
0.0
 11
14.365438
 21
95.374038
 31
0.0
 11
13.776085
 21
96.142663
 31
0.0
 11
13.007460
 21
96.732016
 31
0.0
 11
12.120026
 21
97.099604
 31
0.0
 11
11.159790
 21
97.226368
 31
0.0
  0
LWPOLYLINE
  5
10f
100
AcDbEntity
  8
Holes
 62
1
100
AcDbPolyline
 90
1
 70
1
 10
11.159790
 20
97.226368
 30
0.0
  0
SPLINE
  5
110
100
AcDbEntity
  8
Holes
 62
1
100
AcDbSpline
 70
0
 71
3
 72
25
 73
21
 74
19
 40
0.000000
 40
0.000000
 40
0.000000
 40
0.000000
 40
1.256056
 40
2.489744
 40
3.745800
 40
5.001855
 40
6.235544
 40
7.491600
 40
8.747655
 40
9.981344
 40
11.237400
 40
12.493455
 40
13.727144
 40
14.983199
 40
15.820879
 40
16.651626
 40
17.489306
 40
18.326985
 40
19.157733
 40
19.995412
 40
19.995412
 40
19.995412
 40
19.995412
 10
34.119790
 20
96.659996
 30
0.0
 10
33.698401
 20
96.611371
 30
0.0
 10
32.863128
 20
96.514988
 30
0.0
 10
31.798697
 20
95.775621
 30
0.0
 10
31.085473
 20
94.718473
 30
0.0
 10
30.836890
 20
93.459191
 30
0.0
 10
31.086641
 20
92.204150
 30
0.0
 10
31.797424
 20
91.137600
 30
0.0
 10
32.863830
 20
90.426853
 30
0.0
 10
34.119408
 20
90.177101
 30
0.0
 10
35.376654
 20
90.425650
 30
0.0
 10
36.441385
 20
91.139013
 30
0.0
 10
37.152776
 20
92.202930
 30
0.0
 10
37.375611
 20
93.320959
 30
0.0
 10
37.246073
 20
94.297624
 30
0.0
 10
36.922877
 20
95.078146
 30
0.0
 10
36.408666
 20
95.749576
 30
0.0
 10
35.738081
 20
96.260419
 30
0.0
 10
34.957552
 20
96.596175
 30
0.0
 10
34.399816
 20
96.638663
 30
0.0
 10
34.119790
 20
96.659996
 30
0.0
 11
34.119790
 21
96.659996
 31
0.0
 11
32.888144
 21
96.413576
 31
0.0
 11
31.862369
 21
95.728175
 31
0.0
 11
31.163376
 21
94.684583
 31
0.0
 11
30.919708
 21
93.452389
 31
0.0
 11
31.160388
 21
92.242405
 31
0.0
 11
31.857049
 21
91.197255
 31
0.0
 11
32.902199
 21
90.500594
 31
0.0
 11
34.112183
 21
90.259914
 31
0.0
 11
35.344377
 21
90.503582
 31
0.0
 11
36.387969
 21
91.202575
 31
0.0
 11
37.073370
 21
92.228350
 31
0.0
 11
37.319790
 21
93.459996
 31
0.0
 11
37.210156
 21
94.290470
 31
0.0
 11
36.892243
 21
95.057981
 31
0.0
 11
36.382531
 21
95.722737
 31
0.0
 11
35.717775
 21
96.232449
 31
0.0
 11
34.950264
 21
96.550362
 31
0.0
 11
34.119790
 21
96.659996
 31
0.0
  0
LWPOLYLINE
  5
111
100
AcDbEntity
  8
Holes
 62
1
100
AcDbPolyline
 90
1
 70
1
 10
34.119790
 20
96.659996
 30
0.0
  0
SPLINE
  5
112
100
AcDbEntity
  8
Holes
 62
1
100
AcDbSpline
 70
0
 71
3
 72
25
 73
21
 74
19
 40
0.000000
 40
0.000000
 40
0.000000
 40
0.000000
 40
1.452314
 40
2.878767
 40
4.331081
 40
5.783395
 40
7.209847
 40
8.662162
 40
10.114476
 40
11.540928
 40
12.993242
 40
14.445557
 40
15.872009
 40
17.324323
 40
18.292890
 40
19.253442
 40
20.222009
 40
21.190575
 40
22.151127
 40
23.119694
 40
23.119694
 40
23.119694
 40
23.119694
 10
29.039780
 20
80.649997
 30
0.0
 10
28.552549
 20
80.593775
 30
0.0
 10
27.586765
 20
80.482332
 30
0.0
 10
26.356017
 20
79.627439
 30
0.0
 10
25.531352
 20
78.405112
 30
0.0
 10
25.243927
 20
76.949067
 30
0.0
 10
25.532701
 20
75.497926
 30
0.0
 10
26.354545
 20
74.264728
 30
0.0
 10
27.587576
 20
73.442926
 30
0.0
 10
29.039339
 20
73.154151
 30
0.0
 10
30.493029
 20
73.441536
 30
0.0
 10
31.724124
 20
74.266361
 30
0.0
 10
32.546669
 20
75.496516
 30
0.0
 10
32.804322
 20
76.789237
 30
0.0
 10
32.654545
 20
77.918505
 30
0.0
 10
32.280849
 20
78.820984
 30
0.0
 10
31.686293
 20
79.597325
 30
0.0
 10
30.910928
 20
80.187987
 30
0.0
 10
30.008442
 20
80.576205
 30
0.0
 10
29.363561
 20
80.625332
 30
0.0
 10
29.039780
 20
80.649997
 30
0.0
 11
29.039780
 21
80.649997
 31
0.0
 11
27.615689
 21
80.365074
 31
0.0
 11
26.429637
 21
79.572580
 31
0.0
 11
25.621426
 21
78.365926
 31
0.0
 11
25.339685
 21
76.941202
 31
0.0
 11
25.617972
 21
75.542159
 31
0.0
 11
26.423485
 21
74.333703
 31
0.0
 11
27.631941
 21
73.528190
 31
0.0
 11
29.030984
 21
73.249903
 31
0.0
 11
30.455708
 21
73.531644
 31
0.0
 11
31.662362
 21
74.339855
 31
0.0
 11
32.454856
 21
75.525907
 31
0.0
 11
32.739779
 21
76.949998
 31
0.0
 11
32.613015
 21
77.910234
 31
0.0
 11
32.245428
 21
78.797668
 31
0.0
 11
31.656075
 21
79.566293
 31
0.0
 11
30.887450
 21
80.155646
 31
0.0
 11
30.000016
 21
80.523233
 31
0.0
 11
29.039780
 21
80.649997
 31
0.0
  0
LWPOLYLINE
  5
113
100
AcDbEntity
  8
Holes
 62
1
100
AcDbPolyline
 90
1
 70
1
 10
29.039780
 20
80.649997
 30
0.0
  0
SPLINE
  5
114
100
AcDbEntity
  8
Holes
 62
1
100
AcDbSpline
 70
0
 71
3
 72
25
 73
21
 74
19
 40
0.000000
 40
0.000000
 40
0.000000
 40
0.000000
 40
1.452314
 40
2.878767
 40
4.331081
 40
5.783395
 40
7.209847
 40
8.662162
 40
10.114476
 40
11.540928
 40
12.993242
 40
14.445557
 40
15.872009
 40
17.324323
 40
18.292890
 40
19.253442
 40
20.222009
 40
21.190575
 40
22.151127
 40
23.119694
 40
23.119694
 40
23.119694
 40
23.119694
 10
11.159790
 20
64.206359
 30
0.0
 10
10.672559
 20
64.150137
 30
0.0
 10
9.706775
 20
64.038694
 30
0.0
 10
8.476027
 20
63.183801
 30
0.0
 10
7.651362
 20
61.961474
 30
0.0
 10
7.363937
 20
60.505429
 30
0.0
 10
7.652711
 20
59.054288
 30
0.0
 10
8.474555
 20
57.821090
 30
0.0
 10
9.707586
 20
56.999288
 30
0.0
 10
11.159349
 20
56.710513
 30
0.0
 10
12.613039
 20
56.997898
 30
0.0
 10
13.844134
 20
57.822723
 30
0.0
 10
14.666679
 20
59.052878
 30
0.0
 10
14.924332
 20
60.345599
 30
0.0
 10
14.774555
 20
61.474867
 30
0.0
 10
14.400859
 20
62.377346
 30
0.0
 10
13.806303
 20
63.153687
 30
0.0
 10
13.030938
 20
63.744349
 30
0.0
 10
12.128452
 20
64.132567
 30
0.0
 10
11.483571
 20
64.181694
 30
0.0
 10
11.159790
 20
64.206359
 30
0.0
 11
11.159790
 21
64.206359
 31
0.0
 11
9.735699
 21
63.921436
 31
0.0
 11
8.549647
 21
63.128942
 31
0.0
 11
7.741436
 21
61.922288
 31
0.0
 11
7.459695
 21
60.497564
 31
0.0
 11
7.737982
 21
59.098521
 31
0.0
 11
8.543495
 21
57.890065
 31
0.0
 11
9.751951
 21
57.084552
 31
0.0
 11
11.150994
 21
56.806265
 31
0.0
 11
12.575718
 21
57.088006
 31
0.0
 11
13.782372
 21
57.896217
 31
0.0
 11
14.574866
 21
59.082269
 31
0.0
 11
14.859789
 21
60.506360
 31
0.0
 11
14.733025
 21
61.466596
 31
0.0
 11
14.365438
 21
62.354030
 31
0.0
 11
13.776085
 21
63.122655
 31
0.0
 11
13.007460
 21
63.712008
 31
0.0
 11
12.120026
 21
64.079595
 31
0.0
 11
11.159790
 21
64.206359
 31
0.0
  0
LWPOLYLINE
  5
115
100
AcDbEntity
  8
Holes
 62
1
100
AcDbPolyline
 90
1
 70
1
 10
11.159790
 20
64.206359
 30
0.0
  0
SPLINE
  5
116
100
AcDbEntity
  8
Holes
 62
1
100
AcDbSpline
 70
0
 71
3
 72
22
 73
18
 74
16
 40
0.000000
 40
0.000000
 40
0.000000
 40
0.000000
 40
1.673149
 40
3.296673
 40
4.969822
 40
6.642971
 40
8.266495
 40
9.939644
 40
11.612793
 40
13.236317
 40
14.909466
 40
15.747145
 40
16.577893
 40
17.415572
 40
18.253252
 40
19.083999
 40
19.921679
 40
19.921679
 40
19.921679
 40
19.921679
 10
6.179780
 20
80.149998
 30
0.0
 10
5.615673
 20
80.062046
 30
0.0
 10
4.504190
 20
79.888752
 30
0.0
 10
3.280538
 20
78.614778
 30
0.0
 10
2.827137
 20
76.952936
 30
0.0
 10
3.280540
 20
75.273640
 30
0.0
 10
4.504181
 20
74.050991
 30
0.0
 10
6.179813
 20
73.597194
 30
0.0
 10
7.855248
 20
74.051160
 30
0.0
 10
9.079468
 20
75.272979
 30
0.0
 10
9.454844
 20
76.672657
 30
0.0
 10
9.305920
 20
77.787441
 30
0.0
 10
8.982905
 20
78.568198
 30
0.0
 10
8.468646
 20
79.239565
 30
0.0
 10
7.798073
 20
79.750425
 30
0.0
 10
7.017541
 20
80.086176
 30
0.0
 10
6.459806
 20
80.128665
 30
0.0
 10
6.179780
 20
80.149998
 30
0.0
 11
6.179780
 21
80.149998
 31
0.0
 11
4.564679
 21
79.713104
 31
0.0
 11
3.416674
 21
78.565099
 31
0.0
 11
2.979780
 21
76.949998
 31
0.0
 11
3.416674
 21
75.334897
 31
0.0
 11
4.564679
 21
74.186892
 31
0.0
 11
6.179780
 21
73.749998
 31
0.0
 11
7.794881
 21
74.186892
 31
0.0
 11
8.942886
 21
75.334897
 31
0.0
 11
9.379780
 21
76.949998
 31
0.0
 11
9.270146
 21
77.780472
 31
0.0
 11
8.952233
 21
78.547983
 31
0.0
 11
8.442521
 21
79.212739
 31
0.0
 11
7.777765
 21
79.722451
 31
0.0
 11
7.010254
 21
80.040364
 31
0.0
 11
6.179780
 21
80.149998
 31
0.0
  0
LWPOLYLINE
  5
117
100
AcDbEntity
  8
Holes
 62
1
100
AcDbPolyline
 90
1
 70
1
 10
6.179780
 20
80.149998
 30
0.0
  0
SPLINE
  5
118
100
AcDbEntity
  8
Holes
 62
1
100
AcDbSpline
 70
0
 71
3
 72
25
 73
21
 74
19
 40
0.000000
 40
0.000000
 40
0.000000
 40
0.000000
 40
1.256056
 40
2.489744
 40
3.745800
 40
5.001855
 40
6.235544
 40
7.491600
 40
8.747655
 40
9.981344
 40
11.237400
 40
12.493455
 40
13.727144
 40
14.983199
 40
15.820879
 40
16.651626
 40
17.489306
 40
18.326985
 40
19.157733
 40
19.995412
 40
19.995412
 40
19.995412
 40
19.995412
 10
34.119790
 20
63.640000
 30
0.0
 10
33.698401
 20
63.591375
 30
0.0
 10
32.863128
 20
63.494992
 30
0.0
 10
31.798697
 20
62.755625
 30
0.0
 10
31.085473
 20
61.698477
 30
0.0
 10
30.836890
 20
60.439195
 30
0.0
 10
31.086641
 20
59.184154
 30
0.0
 10
31.797424
 20
58.117604
 30
0.0
 10
32.863830
 20
57.406857
 30
0.0
 10
34.119408
 20
57.157105
 30
0.0
 10
35.376654
 20
57.405654
 30
0.0
 10
36.441385
 20
58.119017
 30
0.0
 10
37.152776
 20
59.182934
 30
0.0
 10
37.375611
 20
60.300963
 30
0.0
 10
37.246073
 20
61.277628
 30
0.0
 10
36.922877
 20
62.058150
 30
0.0
 10
36.408666
 20
62.729580
 30
0.0
 10
35.738081
 20
63.240423
 30
0.0
 10
34.957552
 20
63.576179
 30
0.0
 10
34.399816
 20
63.618667
 30
0.0
 10
34.119790
 20
63.640000
 30
0.0
 11
34.119790
 21
63.640000
 31
0.0
 11
32.888144
 21
63.393580
 31
0.0
 11
31.862369
 21
62.708179
 31
0.0
 11
31.163376
 21
61.664587
 31
0.0
 11
30.919708
 21
60.432393
 31
0.0
 11
31.160388
 21
59.222409
 31
0.0
 11
31.857049
 21
58.177259
 31
0.0
 11
32.902199
 21
57.480598
 31
0.0
 11
34.112183
 21
57.239918
 31
0.0
 11
35.344377
 21
57.483586
 31
0.0
 11
36.387969
 21
58.182579
 31
0.0
 11
37.073370
 21
59.208354
 31
0.0
 11
37.319790
 21
60.440000
 31
0.0
 11
37.210156
 21
61.270474
 31
0.0
 11
36.892243
 21
62.037985
 31
0.0
 11
36.382531
 21
62.702741
 31
0.0
 11
35.717775
 21
63.212453
 31
0.0
 11
34.950264
 21
63.530366
 31
0.0
 11
34.119790
 21
63.640000
 31
0.0
  0
LWPOLYLINE
  5
119
100
AcDbEntity
  8
Holes
 62
1
100
AcDbPolyline
 90
1
 70
1
 10
34.119790
 20
63.640000
 30
0.0
  0
LWPOLYLINE
  5
11a
100
AcDbEntity
  8
Holes
 62
1
100
AcDbPolyline
 90
1
 70
1
 10
23.959800
 20
48.969998
 30
0.0
  0
SPLINE
  5
11b
100
AcDbEntity
  8
Holes
 62
1
100
AcDbSpline
 70
0
 71
3
 72
25
 73
21
 74
19
 40
0.000000
 40
0.000000
 40
0.000000
 40
0.000000
 40
0.981293
 40
1.945113
 40
2.926406
 40
3.907699
 40
4.871518
 40
5.852812
 40
6.834105
 40
7.797924
 40
8.779218
 40
9.760511
 40
10.724330
 40
11.705624
 40
12.360061
 40
13.009082
 40
13.663519
 40
14.317956
 40
14.966978
 40
15.621415
 40
15.621415
 40
15.621415
 40
15.621415
 10
23.959800
 20
48.969998
 30
0.0
 10
23.630590
 20
48.932011
 30
0.0
 10
22.978033
 20
48.856711
 30
0.0
 10
22.146446
 20
48.279081
 30
0.0
 10
21.589240
 20
47.453184
 30
0.0
 10
21.395034
 20
46.469370
 30
0.0
 10
21.590152
 20
45.488870
 30
0.0
 10
22.145452
 20
44.655627
 30
0.0
 10
22.978581
 20
44.100356
 30
0.0
 10
23.959502
 20
43.905238
 30
0.0
 10
24.941725
 20
44.099417
 30
0.0
 10
25.773546
 20
44.656731
 30
0.0
 10
26.329320
 20
45.487916
 30
0.0
 10
26.503410
 20
46.361376
 30
0.0
 10
26.402209
 20
47.124396
 30
0.0
 10
26.149711
 20
47.734179
 30
0.0
 10
25.747984
 20
48.258733
 30
0.0
 10
25.224089
 20
48.657829
 30
0.0
 10
24.614301
 20
48.920139
 30
0.0
 10
24.178571
 20
48.953333
 30
0.0
 10
23.959800
 20
48.969998
 30
0.0
 11
23.959800
 21
48.969998
 31
0.0
 11
22.997576
 21
48.777483
 31
0.0
 11
22.196190
 21
48.242014
 31
0.0
 11
21.650102
 21
47.426707
 31
0.0
 11
21.459736
 21
46.464056
 31
0.0
 11
21.647768
 21
45.518756
 31
0.0
 11
22.192033
 21
44.702232
 31
0.0
 11
23.008557
 21
44.157967
 31
0.0
 11
23.953857
 21
43.969935
 31
0.0
 11
24.916508
 21
44.160301
 31
0.0
 11
25.731815
 21
44.706389
 31
0.0
 11
26.267284
 21
45.507775
 31
0.0
 11
26.459800
 21
46.469999
 31
0.0
 11
26.374148
 21
47.118807
 31
0.0
 11
26.125778
 21
47.718424
 31
0.0
 11
25.727567
 21
48.237766
 31
0.0
 11
25.208225
 21
48.635977
 31
0.0
 11
24.608608
 21
48.884347
 31
0.0
 11
23.959800
 21
48.969998
 31
0.0
  0
LWPOLYLINE
  5
11c
100
AcDbEntity
  8
Holes
 62
1
100
AcDbPolyline
 90
2
 70
0
 10
26.199800
 20
39.050000
 30
0.0
 10
24.259800
 20
39.050000
 30
0.0
  0
SPLINE
  5
11d
100
AcDbEntity
  8
Holes
 62
1
100
AcDbSpline
 70
0
 71
3
 72
13
 73
9
 74
7
 40
0.000000
 40
0.000000
 40
0.000000
 40
0.000000
 40
0.130887
 40
0.260692
 40
0.391579
 40
0.522467
 40
0.652271
 40
0.783158
 40
0.783158
 40
0.783158
 40
0.783158
 10
24.259800
 20
39.050000
 30
0.0
 10
24.216044
 20
39.046667
 30
0.0
 10
24.128892
 20
39.040028
 30
0.0
 10
24.006972
 20
38.987566
 30
0.0
 10
23.902051
 20
38.907749
 30
0.0
 10
23.822235
 20
38.802828
 30
0.0
 10
23.769772
 20
38.680908
 30
0.0
 10
23.763133
 20
38.593757
 30
0.0
 10
23.759800
 20
38.550000
 30
0.0
 11
24.259800
 21
39.050000
 31
0.0
 11
24.130039
 21
39.032870
 31
0.0
 11
24.010115
 21
38.983196
 31
0.0
 11
23.906247
 21
38.903553
 31
0.0
 11
23.826604
 21
38.799685
 31
0.0
 11
23.776930
 21
38.679762
 31
0.0
 11
23.759800
 21
38.550000
 31
0.0
  0
LWPOLYLINE
  5
11e
100
AcDbEntity
  8
Holes
 62
1
100
AcDbPolyline
 90
2
 70
0
 10
23.759800
 20
38.550000
 30
0.0
 10
23.759800
 20
31.530000
 30
0.0
  0
SPLINE
  5
11f
100
AcDbEntity
  8
Holes
 62
1
100
AcDbSpline
 70
0
 71
3
 72
13
 73
9
 74
7
 40
0.000000
 40
0.000000
 40
0.000000
 40
0.000000
 40
0.130887
 40
0.260692
 40
0.391579
 40
0.522467
 40
0.652271
 40
0.783158
 40
0.783158
 40
0.783158
 40
0.783158
 10
23.759800
 20
31.530000
 30
0.0
 10
23.763133
 20
31.486243
 30
0.0
 10
23.769772
 20
31.399092
 30
0.0
 10
23.822235
 20
31.277171
 30
0.0
 10
23.902051
 20
31.172251
 30
0.0
 10
24.006972
 20
31.092434
 30
0.0
 10
24.128892
 20
31.039971
 30
0.0
 10
24.216044
 20
31.033333
 30
0.0
 10
24.259800
 20
31.030000
 30
0.0
 11
23.759800
 21
31.530000
 31
0.0
 11
23.776930
 21
31.400238
 31
0.0
 11
23.826604
 21
31.280314
 31
0.0
 11
23.906247
 21
31.176446
 31
0.0
 11
24.010115
 21
31.096804
 31
0.0
 11
24.130039
 21
31.047130
 31
0.0
 11
24.259800
 21
31.030000
 31
0.0
  0
LWPOLYLINE
  5
120
100
AcDbEntity
  8
Holes
 62
1
100
AcDbPolyline
 90
2
 70
0
 10
24.259800
 20
31.030000
 30
0.0
 10
26.199800
 20
31.030000
 30
0.0
  0
SPLINE
  5
121
100
AcDbEntity
  8
Holes
 62
1
100
AcDbSpline
 70
0
 71
3
 72
13
 73
9
 74
7
 40
0.000000
 40
0.000000
 40
0.000000
 40
0.000000
 40
0.130887
 40
0.260692
 40
0.391579
 40
0.522467
 40
0.652271
 40
0.783158
 40
0.783158
 40
0.783158
 40
0.783158
 10
26.199800
 20
31.030000
 30
0.0
 10
26.243557
 20
31.033333
 30
0.0
 10
26.330708
 20
31.039971
 30
0.0
 10
26.452628
 20
31.092434
 30
0.0
 10
26.557549
 20
31.172251
 30
0.0
 10
26.637366
 20
31.277171
 30
0.0
 10
26.689828
 20
31.399092
 30
0.0
 10
26.696467
 20
31.486243
 30
0.0
 10
26.699800
 20
31.530000
 30
0.0
 11
26.199800
 21
31.030000
 31
0.0
 11
26.329562
 21
31.047130
 31
0.0
 11
26.449485
 21
31.096804
 31
0.0
 11
26.553353
 21
31.176446
 31
0.0
 11
26.632996
 21
31.280314
 31
0.0
 11
26.682670
 21
31.400238
 31
0.0
 11
26.699800
 21
31.530000
 31
0.0
  0
LWPOLYLINE
  5
122
100
AcDbEntity
  8
Holes
 62
1
100
AcDbPolyline
 90
2
 70
0
 10
26.699800
 20
31.530000
 30
0.0
 10
26.699800
 20
38.550000
 30
0.0
  0
LWPOLYLINE
  5
123
100
AcDbEntity
  8
Holes
 62
1
100
AcDbPolyline
 90
1
 70
1
 10
26.199800
 20
39.050000
 30
0.0
  0
SPLINE
  5
124
100
AcDbEntity
  8
Holes
 62
1
100
AcDbSpline
 70
0
 71
3
 72
13
 73
9
 74
7
 40
0.000000
 40
0.000000
 40
0.000000
 40
0.000000
 40
0.130887
 40
0.260692
 40
0.391579
 40
0.522467
 40
0.652271
 40
0.783158
 40
0.783158
 40
0.783158
 40
0.783158
 10
26.699800
 20
38.550000
 30
0.0
 10
26.696467
 20
38.593757
 30
0.0
 10
26.689828
 20
38.680908
 30
0.0
 10
26.637366
 20
38.802828
 30
0.0
 10
26.557549
 20
38.907749
 30
0.0
 10
26.452628
 20
38.987566
 30
0.0
 10
26.330708
 20
39.040028
 30
0.0
 10
26.243557
 20
39.046667
 30
0.0
 10
26.199800
 20
39.050000
 30
0.0
 11
26.699800
 21
38.550000
 31
0.0
 11
26.682670
 21
38.679762
 31
0.0
 11
26.632996
 21
38.799685
 31
0.0
 11
26.553353
 21
38.903553
 31
0.0
 11
26.449485
 21
38.983196
 31
0.0
 11
26.329562
 21
39.032870
 31
0.0
 11
26.199800
 21
39.050000
 31
0.0
  0
LWPOLYLINE
  5
125
100
AcDbEntity
  8
Holes
 62
1
100
AcDbPolyline
 90
2
 70
0
 10
21.119800
 20
39.050000
 30
0.0
 10
19.179800
 20
39.050000
 30
0.0
  0
SPLINE
  5
126
100
AcDbEntity
  8
Holes
 62
1
100
AcDbSpline
 70
0
 71
3
 72
13
 73
9
 74
7
 40
0.000000
 40
0.000000
 40
0.000000
 40
0.000000
 40
0.130887
 40
0.260692
 40
0.391579
 40
0.522467
 40
0.652271
 40
0.783158
 40
0.783158
 40
0.783158
 40
0.783158
 10
19.179800
 20
39.050000
 30
0.0
 10
19.136044
 20
39.046667
 30
0.0
 10
19.048892
 20
39.040028
 30
0.0
 10
18.926972
 20
38.987566
 30
0.0
 10
18.822051
 20
38.907749
 30
0.0
 10
18.742235
 20
38.802828
 30
0.0
 10
18.689772
 20
38.680908
 30
0.0
 10
18.683133
 20
38.593757
 30
0.0
 10
18.679800
 20
38.550000
 30
0.0
 11
19.179800
 21
39.050000
 31
0.0
 11
19.050039
 21
39.032870
 31
0.0
 11
18.930115
 21
38.983196
 31
0.0
 11
18.826247
 21
38.903553
 31
0.0
 11
18.746604
 21
38.799685
 31
0.0
 11
18.696930
 21
38.679762
 31
0.0
 11
18.679800
 21
38.550000
 31
0.0
  0
LWPOLYLINE
  5
127
100
AcDbEntity
  8
Holes
 62
1
100
AcDbPolyline
 90
2
 70
0
 10
18.679800
 20
38.550000
 30
0.0
 10
18.679800
 20
31.530000
 30
0.0
  0
SPLINE
  5
128
100
AcDbEntity
  8
Holes
 62
1
100
AcDbSpline
 70
0
 71
3
 72
13
 73
9
 74
7
 40
0.000000
 40
0.000000
 40
0.000000
 40
0.000000
 40
0.130887
 40
0.260692
 40
0.391579
 40
0.522467
 40
0.652271
 40
0.783158
 40
0.783158
 40
0.783158
 40
0.783158
 10
18.679800
 20
31.530000
 30
0.0
 10
18.683133
 20
31.486243
 30
0.0
 10
18.689772
 20
31.399092
 30
0.0
 10
18.742235
 20
31.277171
 30
0.0
 10
18.822051
 20
31.172251
 30
0.0
 10
18.926972
 20
31.092434
 30
0.0
 10
19.048892
 20
31.039971
 30
0.0
 10
19.136044
 20
31.033333
 30
0.0
 10
19.179800
 20
31.030000
 30
0.0
 11
18.679800
 21
31.530000
 31
0.0
 11
18.696930
 21
31.400238
 31
0.0
 11
18.746604
 21
31.280314
 31
0.0
 11
18.826247
 21
31.176446
 31
0.0
 11
18.930115
 21
31.096804
 31
0.0
 11
19.050039
 21
31.047130
 31
0.0
 11
19.179800
 21
31.030000
 31
0.0
  0
LWPOLYLINE
  5
129
100
AcDbEntity
  8
Holes
 62
1
100
AcDbPolyline
 90
2
 70
0
 10
19.179800
 20
31.030000
 30
0.0
 10
21.119800
 20
31.030000
 30
0.0
  0
SPLINE
  5
12a
100
AcDbEntity
  8
Holes
 62
1
100
AcDbSpline
 70
0
 71
3
 72
13
 73
9
 74
7
 40
0.000000
 40
0.000000
 40
0.000000
 40
0.000000
 40
0.130887
 40
0.260692
 40
0.391579
 40
0.522467
 40
0.652271
 40
0.783158
 40
0.783158
 40
0.783158
 40
0.783158
 10
21.119800
 20
31.030000
 30
0.0
 10
21.163557
 20
31.033333
 30
0.0
 10
21.250708
 20
31.039971
 30
0.0
 10
21.372628
 20
31.092434
 30
0.0
 10
21.477549
 20
31.172251
 30
0.0
 10
21.557366
 20
31.277171
 30
0.0
 10
21.609828
 20
31.399092
 30
0.0
 10
21.616467
 20
31.486243
 30
0.0
 10
21.619800
 20
31.530000
 30
0.0
 11
21.119800
 21
31.030000
 31
0.0
 11
21.249562
 21
31.047130
 31
0.0
 11
21.369485
 21
31.096804
 31
0.0
 11
21.473353
 21
31.176446
 31
0.0
 11
21.552996
 21
31.280314
 31
0.0
 11
21.602670
 21
31.400238
 31
0.0
 11
21.619800
 21
31.530000
 31
0.0
  0
LWPOLYLINE
  5
12b
100
AcDbEntity
  8
Holes
 62
1
100
AcDbPolyline
 90
2
 70
0
 10
21.619800
 20
31.530000
 30
0.0
 10
21.619800
 20
38.550000
 30
0.0
  0
LWPOLYLINE
  5
12c
100
AcDbEntity
  8
Holes
 62
1
100
AcDbPolyline
 90
1
 70
1
 10
21.119800
 20
39.050000
 30
0.0
  0
SPLINE
  5
12d
100
AcDbEntity
  8
Holes
 62
1
100
AcDbSpline
 70
0
 71
3
 72
13
 73
9
 74
7
 40
0.000000
 40
0.000000
 40
0.000000
 40
0.000000
 40
0.130887
 40
0.260692
 40
0.391579
 40
0.522467
 40
0.652271
 40
0.783158
 40
0.783158
 40
0.783158
 40
0.783158
 10
21.619800
 20
38.550000
 30
0.0
 10
21.616467
 20
38.593757
 30
0.0
 10
21.609828
 20
38.680908
 30
0.0
 10
21.557366
 20
38.802828
 30
0.0
 10
21.477549
 20
38.907749
 30
0.0
 10
21.372628
 20
38.987566
 30
0.0
 10
21.250708
 20
39.040028
 30
0.0
 10
21.163557
 20
39.046667
 30
0.0
 10
21.119800
 20
39.050000
 30
0.0
 11
21.619800
 21
38.550000
 31
0.0
 11
21.602670
 21
38.679762
 31
0.0
 11
21.552996
 21
38.799685
 31
0.0
 11
21.473353
 21
38.903553
 31
0.0
 11
21.369485
 21
38.983196
 31
0.0
 11
21.249562
 21
39.032870
 31
0.0
 11
21.119800
 21
39.050000
 31
0.0
  0
LWPOLYLINE
  5
12e
100
AcDbEntity
  8
Holes
 62
1
100
AcDbPolyline
 90
2
 70
0
 10
10.867800
 20
39.050000
 30
0.0
 10
6.387800
 20
39.050000
 30
0.0
  0
SPLINE
  5
12f
100
AcDbEntity
  8
Holes
 62
1
100
AcDbSpline
 70
0
 71
3
 72
13
 73
9
 74
7
 40
0.000000
 40
0.000000
 40
0.000000
 40
0.000000
 40
0.130887
 40
0.260692
 40
0.391579
 40
0.522467
 40
0.652271
 40
0.783158
 40
0.783158
 40
0.783158
 40
0.783158
 10
6.387800
 20
39.050000
 30
0.0
 10
6.344043
 20
39.046667
 30
0.0
 10
6.256892
 20
39.040028
 30
0.0
 10
6.134972
 20
38.987566
 30
0.0
 10
6.030051
 20
38.907749
 30
0.0
 10
5.950234
 20
38.802828
 30
0.0
 10
5.897772
 20
38.680908
 30
0.0
 10
5.891133
 20
38.593757
 30
0.0
 10
5.887800
 20
38.550000
 30
0.0
 11
6.387800
 21
39.050000
 31
0.0
 11
6.258038
 21
39.032870
 31
0.0
 11
6.138115
 21
38.983196
 31
0.0
 11
6.034247
 21
38.903553
 31
0.0
 11
5.954604
 21
38.799685
 31
0.0
 11
5.904930
 21
38.679762
 31
0.0
 11
5.887800
 21
38.550000
 31
0.0
  0
LWPOLYLINE
  5
130
100
AcDbEntity
  8
Holes
 62
1
100
AcDbPolyline
 90
2
 70
0
 10
5.887800
 20
38.550000
 30
0.0
 10
5.887800
 20
31.530000
 30
0.0
  0
SPLINE
  5
131
100
AcDbEntity
  8
Holes
 62
1
100
AcDbSpline
 70
0
 71
3
 72
13
 73
9
 74
7
 40
0.000000
 40
0.000000
 40
0.000000
 40
0.000000
 40
0.130887
 40
0.260692
 40
0.391579
 40
0.522467
 40
0.652271
 40
0.783158
 40
0.783158
 40
0.783158
 40
0.783158
 10
5.887800
 20
31.530000
 30
0.0
 10
5.891133
 20
31.486243
 30
0.0
 10
5.897772
 20
31.399092
 30
0.0
 10
5.950234
 20
31.277171
 30
0.0
 10
6.030051
 20
31.172251
 30
0.0
 10
6.134972
 20
31.092434
 30
0.0
 10
6.256892
 20
31.039971
 30
0.0
 10
6.344043
 20
31.033333
 30
0.0
 10
6.387800
 20
31.030000
 30
0.0
 11
5.887800
 21
31.530000
 31
0.0
 11
5.904930
 21
31.400238
 31
0.0
 11
5.954604
 21
31.280314
 31
0.0
 11
6.034247
 21
31.176446
 31
0.0
 11
6.138115
 21
31.096804
 31
0.0
 11
6.258038
 21
31.047130
 31
0.0
 11
6.387800
 21
31.030000
 31
0.0
  0
LWPOLYLINE
  5
132
100
AcDbEntity
  8
Holes
 62
1
100
AcDbPolyline
 90
2
 70
0
 10
6.387800
 20
31.030000
 30
0.0
 10
10.867800
 20
31.030000
 30
0.0
  0
SPLINE
  5
133
100
AcDbEntity
  8
Holes
 62
1
100
AcDbSpline
 70
0
 71
3
 72
13
 73
9
 74
7
 40
0.000000
 40
0.000000
 40
0.000000
 40
0.000000
 40
0.130887
 40
0.260692
 40
0.391579
 40
0.522467
 40
0.652271
 40
0.783158
 40
0.783158
 40
0.783158
 40
0.783158
 10
10.867800
 20
31.030000
 30
0.0
 10
10.911557
 20
31.033333
 30
0.0
 10
10.998708
 20
31.039971
 30
0.0
 10
11.120628
 20
31.092434
 30
0.0
 10
11.225549
 20
31.172251
 30
0.0
 10
11.305366
 20
31.277171
 30
0.0
 10
11.357828
 20
31.399092
 30
0.0
 10
11.364467
 20
31.486243
 30
0.0
 10
11.367800
 20
31.530000
 30
0.0
 11
10.867800
 21
31.030000
 31
0.0
 11
10.997562
 21
31.047130
 31
0.0
 11
11.117485
 21
31.096804
 31
0.0
 11
11.221353
 21
31.176446
 31
0.0
 11
11.300996
 21
31.280314
 31
0.0
 11
11.350670
 21
31.400238
 31
0.0
 11
11.367800
 21
31.530000
 31
0.0
  0
LWPOLYLINE
  5
134
100
AcDbEntity
  8
Holes
 62
1
100
AcDbPolyline
 90
2
 70
0
 10
11.367800
 20
31.530000
 30
0.0
 10
11.367800
 20
38.550000
 30
0.0
  0
LWPOLYLINE
  5
135
100
AcDbEntity
  8
Holes
 62
1
100
AcDbPolyline
 90
1
 70
1
 10
10.867800
 20
39.050000
 30
0.0
  0
SPLINE
  5
136
100
AcDbEntity
  8
Holes
 62
1
100
AcDbSpline
 70
0
 71
3
 72
13
 73
9
 74
7
 40
0.000000
 40
0.000000
 40
0.000000
 40
0.000000
 40
0.130887
 40
0.260692
 40
0.391579
 40
0.522467
 40
0.652271
 40
0.783158
 40
0.783158
 40
0.783158
 40
0.783158
 10
11.367800
 20
38.550000
 30
0.0
 10
11.364467
 20
38.593757
 30
0.0
 10
11.357828
 20
38.680908
 30
0.0
 10
11.305366
 20
38.802828
 30
0.0
 10
11.225549
 20
38.907749
 30
0.0
 10
11.120628
 20
38.987566
 30
0.0
 10
10.998708
 20
39.040028
 30
0.0
 10
10.911557
 20
39.046667
 30
0.0
 10
10.867800
 20
39.050000
 30
0.0
 11
11.367800
 21
38.550000
 31
0.0
 11
11.350670
 21
38.679762
 31
0.0
 11
11.300996
 21
38.799685
 31
0.0
 11
11.221353
 21
38.903553
 31
0.0
 11
11.117485
 21
38.983196
 31
0.0
 11
10.997562
 21
39.032870
 31
0.0
 11
10.867800
 21
39.050000
 31
0.0
  0
LWPOLYLINE
  5
137
100
AcDbEntity
  8
Holes
 62
1
100
AcDbPolyline
 90
2
 70
0
 10
14.099770
 20
27.620020
 30
0.0
 10
16.039770
 20
27.620020
 30
0.0
  0
SPLINE
  5
138
100
AcDbEntity
  8
Holes
 62
1
100
AcDbSpline
 70
0
 71
3
 72
13
 73
9
 74
7
 40
0.000000
 40
0.000000
 40
0.000000
 40
0.000000
 40
0.130887
 40
0.260692
 40
0.391579
 40
0.522467
 40
0.652271
 40
0.783158
 40
0.783158
 40
0.783158
 40
0.783158
 10
16.039770
 20
27.620020
 30
0.0
 10
16.083526
 20
27.616687
 30
0.0
 10
16.170678
 20
27.610048
 30
0.0
 10
16.292598
 20
27.557586
 30
0.0
 10
16.397519
 20
27.477769
 30
0.0
 10
16.477335
 20
27.372848
 30
0.0
 10
16.529798
 20
27.250928
 30
0.0
 10
16.536437
 20
27.163777
 30
0.0
 10
16.539770
 20
27.120020
 30
0.0
 11
16.039770
 21
27.620020
 31
0.0
 11
16.169531
 21
27.602890
 31
0.0
 11
16.289455
 21
27.553216
 31
0.0
 11
16.393323
 21
27.473573
 31
0.0
 11
16.472966
 21
27.369705
 31
0.0
 11
16.522640
 21
27.249782
 31
0.0
 11
16.539770
 21
27.120020
 31
0.0
  0
LWPOLYLINE
  5
139
100
AcDbEntity
  8
Holes
 62
1
100
AcDbPolyline
 90
2
 70
0
 10
16.539770
 20
27.120020
 30
0.0
 10
16.539770
 20
20.100020
 30
0.0
  0
SPLINE
  5
13a
100
AcDbEntity
  8
Holes
 62
1
100
AcDbSpline
 70
0
 71
3
 72
13
 73
9
 74
7
 40
0.000000
 40
0.000000
 40
0.000000
 40
0.000000
 40
0.130887
 40
0.260692
 40
0.391579
 40
0.522467
 40
0.652271
 40
0.783158
 40
0.783158
 40
0.783158
 40
0.783158
 10
16.539770
 20
20.100020
 30
0.0
 10
16.536437
 20
20.056263
 30
0.0
 10
16.529798
 20
19.969112
 30
0.0
 10
16.477335
 20
19.847191
 30
0.0
 10
16.397519
 20
19.742271
 30
0.0
 10
16.292598
 20
19.662454
 30
0.0
 10
16.170678
 20
19.609991
 30
0.0
 10
16.083526
 20
19.603353
 30
0.0
 10
16.039770
 20
19.600020
 30
0.0
 11
16.539770
 21
20.100020
 31
0.0
 11
16.522640
 21
19.970258
 31
0.0
 11
16.472966
 21
19.850334
 31
0.0
 11
16.393323
 21
19.746466
 31
0.0
 11
16.289455
 21
19.666824
 31
0.0
 11
16.169531
 21
19.617150
 31
0.0
 11
16.039770
 21
19.600020
 31
0.0
  0
LWPOLYLINE
  5
13b
100
AcDbEntity
  8
Holes
 62
1
100
AcDbPolyline
 90
2
 70
0
 10
16.039770
 20
19.600020
 30
0.0
 10
14.099770
 20
19.600020
 30
0.0
  0
SPLINE
  5
13c
100
AcDbEntity
  8
Holes
 62
1
100
AcDbSpline
 70
0
 71
3
 72
13
 73
9
 74
7
 40
0.000000
 40
0.000000
 40
0.000000
 40
0.000000
 40
0.130887
 40
0.260692
 40
0.391579
 40
0.522467
 40
0.652271
 40
0.783158
 40
0.783158
 40
0.783158
 40
0.783158
 10
14.099770
 20
19.600020
 30
0.0
 10
14.056013
 20
19.603353
 30
0.0
 10
13.968862
 20
19.609991
 30
0.0
 10
13.846942
 20
19.662454
 30
0.0
 10
13.742021
 20
19.742271
 30
0.0
 10
13.662204
 20
19.847191
 30
0.0
 10
13.609742
 20
19.969112
 30
0.0
 10
13.603103
 20
20.056263
 30
0.0
 10
13.599770
 20
20.100020
 30
0.0
 11
14.099770
 21
19.600020
 31
0.0
 11
13.970008
 21
19.617150
 31
0.0
 11
13.850085
 21
19.666824
 31
0.0
 11
13.746217
 21
19.746466
 31
0.0
 11
13.666574
 21
19.850334
 31
0.0
 11
13.616900
 21
19.970258
 31
0.0
 11
13.599770
 21
20.100020
 31
0.0
  0
LWPOLYLINE
  5
13d
100
AcDbEntity
  8
Holes
 62
1
100
AcDbPolyline
 90
2
 70
0
 10
13.599770
 20
20.100020
 30
0.0
 10
13.599770
 20
27.120020
 30
0.0
  0
LWPOLYLINE
  5
13e
100
AcDbEntity
  8
Holes
 62
1
100
AcDbPolyline
 90
1
 70
1
 10
14.099770
 20
27.620020
 30
0.0
  0
SPLINE
  5
13f
100
AcDbEntity
  8
Holes
 62
1
100
AcDbSpline
 70
0
 71
3
 72
13
 73
9
 74
7
 40
0.000000
 40
0.000000
 40
0.000000
 40
0.000000
 40
0.130887
 40
0.260692
 40
0.391579
 40
0.522467
 40
0.652271
 40
0.783158
 40
0.783158
 40
0.783158
 40
0.783158
 10
13.599770
 20
27.120020
 30
0.0
 10
13.603103
 20
27.163777
 30
0.0
 10
13.609742
 20
27.250928
 30
0.0
 10
13.662204
 20
27.372848
 30
0.0
 10
13.742021
 20
27.477769
 30
0.0
 10
13.846942
 20
27.557586
 30
0.0
 10
13.968862
 20
27.610048
 30
0.0
 10
14.056013
 20
27.616687
 30
0.0
 10
14.099770
 20
27.620020
 30
0.0
 11
13.599770
 21
27.120020
 31
0.0
 11
13.616900
 21
27.249782
 31
0.0
 11
13.666574
 21
27.369705
 31
0.0
 11
13.746217
 21
27.473573
 31
0.0
 11
13.850085
 21
27.553216
 31
0.0
 11
13.970008
 21
27.602890
 31
0.0
 11
14.099770
 21
27.620020
 31
0.0
  0
LWPOLYLINE
  5
140
100
AcDbEntity
  8
Holes
 62
1
100
AcDbPolyline
 90
2
 70
0
 10
14.099770
 20
16.090010
 30
0.0
 10
16.039770
 20
16.090010
 30
0.0
  0
SPLINE
  5
141
100
AcDbEntity
  8
Holes
 62
1
100
AcDbSpline
 70
0
 71
3
 72
13
 73
9
 74
7
 40
0.000000
 40
0.000000
 40
0.000000
 40
0.000000
 40
0.130887
 40
0.260692
 40
0.391579
 40
0.522467
 40
0.652271
 40
0.783158
 40
0.783158
 40
0.783158
 40
0.783158
 10
16.039770
 20
16.090010
 30
0.0
 10
16.083526
 20
16.086677
 30
0.0
 10
16.170678
 20
16.080038
 30
0.0
 10
16.292598
 20
16.027576
 30
0.0
 10
16.397519
 20
15.947759
 30
0.0
 10
16.477335
 20
15.842838
 30
0.0
 10
16.529798
 20
15.720918
 30
0.0
 10
16.536437
 20
15.633767
 30
0.0
 10
16.539770
 20
15.590010
 30
0.0
 11
16.039770
 21
16.090010
 31
0.0
 11
16.169531
 21
16.072880
 31
0.0
 11
16.289455
 21
16.023206
 31
0.0
 11
16.393323
 21
15.943563
 31
0.0
 11
16.472966
 21
15.839695
 31
0.0
 11
16.522640
 21
15.719772
 31
0.0
 11
16.539770
 21
15.590010
 31
0.0
  0
LWPOLYLINE
  5
142
100
AcDbEntity
  8
Holes
 62
1
100
AcDbPolyline
 90
2
 70
0
 10
16.539770
 20
15.590010
 30
0.0
 10
16.539770
 20
11.310010
 30
0.0
  0
SPLINE
  5
143
100
AcDbEntity
  8
Holes
 62
1
100
AcDbSpline
 70
0
 71
3
 72
13
 73
9
 74
7
 40
0.000000
 40
0.000000
 40
0.000000
 40
0.000000
 40
0.130887
 40
0.260692
 40
0.391579
 40
0.522467
 40
0.652271
 40
0.783158
 40
0.783158
 40
0.783158
 40
0.783158
 10
16.539770
 20
11.310010
 30
0.0
 10
16.536437
 20
11.266253
 30
0.0
 10
16.529798
 20
11.179102
 30
0.0
 10
16.477335
 20
11.057181
 30
0.0
 10
16.397519
 20
10.952261
 30
0.0
 10
16.292598
 20
10.872444
 30
0.0
 10
16.170678
 20
10.819982
 30
0.0
 10
16.083526
 20
10.813343
 30
0.0
 10
16.039770
 20
10.810010
 30
0.0
 11
16.539770
 21
11.310010
 31
0.0
 11
16.522640
 21
11.180248
 31
0.0
 11
16.472966
 21
11.060325
 31
0.0
 11
16.393323
 21
10.956456
 31
0.0
 11
16.289455
 21
10.876814
 31
0.0
 11
16.169531
 21
10.827140
 31
0.0
 11
16.039770
 21
10.810010
 31
0.0
  0
LWPOLYLINE
  5
144
100
AcDbEntity
  8
Holes
 62
1
100
AcDbPolyline
 90
2
 70
0
 10
16.039770
 20
10.810010
 30
0.0
 10
14.099770
 20
10.810010
 30
0.0
  0
SPLINE
  5
145
100
AcDbEntity
  8
Holes
 62
1
100
AcDbSpline
 70
0
 71
3
 72
13
 73
9
 74
7
 40
0.000000
 40
0.000000
 40
0.000000
 40
0.000000
 40
0.130887
 40
0.260692
 40
0.391579
 40
0.522467
 40
0.652271
 40
0.783158
 40
0.783158
 40
0.783158
 40
0.783158
 10
14.099770
 20
10.810010
 30
0.0
 10
14.056013
 20
10.813343
 30
0.0
 10
13.968862
 20
10.819982
 30
0.0
 10
13.846942
 20
10.872444
 30
0.0
 10
13.742021
 20
10.952261
 30
0.0
 10
13.662204
 20
11.057181
 30
0.0
 10
13.609742
 20
11.179102
 30
0.0
 10
13.603103
 20
11.266253
 30
0.0
 10
13.599770
 20
11.310010
 30
0.0
 11
14.099770
 21
10.810010
 31
0.0
 11
13.970008
 21
10.827140
 31
0.0
 11
13.850085
 21
10.876814
 31
0.0
 11
13.746217
 21
10.956456
 31
0.0
 11
13.666574
 21
11.060325
 31
0.0
 11
13.616900
 21
11.180248
 31
0.0
 11
13.599770
 21
11.310010
 31
0.0
  0
LWPOLYLINE
  5
146
100
AcDbEntity
  8
Holes
 62
1
100
AcDbPolyline
 90
2
 70
0
 10
13.599770
 20
11.310010
 30
0.0
 10
13.599770
 20
15.590010
 30
0.0
  0
LWPOLYLINE
  5
147
100
AcDbEntity
  8
Holes
 62
1
100
AcDbPolyline
 90
1
 70
1
 10
14.099770
 20
16.090010
 30
0.0
  0
SPLINE
  5
148
100
AcDbEntity
  8
Holes
 62
1
100
AcDbSpline
 70
0
 71
3
 72
13
 73
9
 74
7
 40
0.000000
 40
0.000000
 40
0.000000
 40
0.000000
 40
0.130887
 40
0.260692
 40
0.391579
 40
0.522467
 40
0.652271
 40
0.783158
 40
0.783158
 40
0.783158
 40
0.783158
 10
13.599770
 20
15.590010
 30
0.0
 10
13.603103
 20
15.633767
 30
0.0
 10
13.609742
 20
15.720918
 30
0.0
 10
13.662204
 20
15.842838
 30
0.0
 10
13.742021
 20
15.947759
 30
0.0
 10
13.846942
 20
16.027576
 30
0.0
 10
13.968862
 20
16.080038
 30
0.0
 10
14.056013
 20
16.086677
 30
0.0
 10
14.099770
 20
16.090010
 30
0.0
 11
13.599770
 21
15.590010
 31
0.0
 11
13.616900
 21
15.719772
 31
0.0
 11
13.666574
 21
15.839695
 31
0.0
 11
13.746217
 21
15.943563
 31
0.0
 11
13.850085
 21
16.023206
 31
0.0
 11
13.970008
 21
16.072880
 31
0.0
 11
14.099770
 21
16.090010
 31
0.0
  0
LWPOLYLINE
  5
149
100
AcDbEntity
  8
Holes
 62
1
100
AcDbPolyline
 90
2
 70
0
 10
19.179780
 20
27.620000
 30
0.0
 10
21.119780
 20
27.620000
 30
0.0
  0
SPLINE
  5
14a
100
AcDbEntity
  8
Holes
 62
1
100
AcDbSpline
 70
0
 71
3
 72
13
 73
9
 74
7
 40
0.000000
 40
0.000000
 40
0.000000
 40
0.000000
 40
0.130887
 40
0.260692
 40
0.391579
 40
0.522467
 40
0.652271
 40
0.783158
 40
0.783158
 40
0.783158
 40
0.783158
 10
21.119780
 20
27.620000
 30
0.0
 10
21.163536
 20
27.616667
 30
0.0
 10
21.250688
 20
27.610028
 30
0.0
 10
21.372608
 20
27.557566
 30
0.0
 10
21.477529
 20
27.477749
 30
0.0
 10
21.557345
 20
27.372828
 30
0.0
 10
21.609808
 20
27.250908
 30
0.0
 10
21.616447
 20
27.163757
 30
0.0
 10
21.619780
 20
27.120000
 30
0.0
 11
21.119780
 21
27.620000
 31
0.0
 11
21.249541
 21
27.602870
 31
0.0
 11
21.369465
 21
27.553196
 31
0.0
 11
21.473333
 21
27.473553
 31
0.0
 11
21.552976
 21
27.369685
 31
0.0
 11
21.602650
 21
27.249762
 31
0.0
 11
21.619780
 21
27.120000
 31
0.0
  0
LWPOLYLINE
  5
14b
100
AcDbEntity
  8
Holes
 62
1
100
AcDbPolyline
 90
2
 70
0
 10
21.619780
 20
27.120000
 30
0.0
 10
21.619780
 20
20.099999
 30
0.0
  0
SPLINE
  5
14c
100
AcDbEntity
  8
Holes
 62
1
100
AcDbSpline
 70
0
 71
3
 72
13
 73
9
 74
7
 40
0.000000
 40
0.000000
 40
0.000000
 40
0.000000
 40
0.130887
 40
0.260692
 40
0.391579
 40
0.522467
 40
0.652271
 40
0.783158
 40
0.783158
 40
0.783158
 40
0.783158
 10
21.619780
 20
20.099999
 30
0.0
 10
21.616447
 20
20.056243
 30
0.0
 10
21.609808
 20
19.969092
 30
0.0
 10
21.557345
 20
19.847171
 30
0.0
 10
21.477529
 20
19.742251
 30
0.0
 10
21.372608
 20
19.662434
 30
0.0
 10
21.250688
 20
19.609971
 30
0.0
 10
21.163536
 20
19.603333
 30
0.0
 10
21.119780
 20
19.599999
 30
0.0
 11
21.619780
 21
20.099999
 31
0.0
 11
21.602650
 21
19.970238
 31
0.0
 11
21.552976
 21
19.850314
 31
0.0
 11
21.473333
 21
19.746446
 31
0.0
 11
21.369465
 21
19.666804
 31
0.0
 11
21.249541
 21
19.617130
 31
0.0
 11
21.119780
 21
19.599999
 31
0.0
  0
LWPOLYLINE
  5
14d
100
AcDbEntity
  8
Holes
 62
1
100
AcDbPolyline
 90
2
 70
0
 10
21.119780
 20
19.599999
 30
0.0
 10
19.179780
 20
19.599999
 30
0.0
  0
SPLINE
  5
14e
100
AcDbEntity
  8
Holes
 62
1
100
AcDbSpline
 70
0
 71
3
 72
13
 73
9
 74
7
 40
0.000000
 40
0.000000
 40
0.000000
 40
0.000000
 40
0.130887
 40
0.260692
 40
0.391579
 40
0.522467
 40
0.652271
 40
0.783158
 40
0.783158
 40
0.783158
 40
0.783158
 10
19.179780
 20
19.599999
 30
0.0
 10
19.136023
 20
19.603333
 30
0.0
 10
19.048872
 20
19.609971
 30
0.0
 10
18.926952
 20
19.662434
 30
0.0
 10
18.822031
 20
19.742251
 30
0.0
 10
18.742214
 20
19.847171
 30
0.0
 10
18.689752
 20
19.969092
 30
0.0
 10
18.683113
 20
20.056243
 30
0.0
 10
18.679780
 20
20.099999
 30
0.0
 11
19.179780
 21
19.599999
 31
0.0
 11
19.050018
 21
19.617130
 31
0.0
 11
18.930095
 21
19.666804
 31
0.0
 11
18.826227
 21
19.746446
 31
0.0
 11
18.746584
 21
19.850314
 31
0.0
 11
18.696910
 21
19.970238
 31
0.0
 11
18.679780
 21
20.099999
 31
0.0
  0
LWPOLYLINE
  5
14f
100
AcDbEntity
  8
Holes
 62
1
100
AcDbPolyline
 90
2
 70
0
 10
18.679780
 20
20.099999
 30
0.0
 10
18.679780
 20
27.120000
 30
0.0
  0
LWPOLYLINE
  5
150
100
AcDbEntity
  8
Holes
 62
1
100
AcDbPolyline
 90
1
 70
1
 10
19.179780
 20
27.620000
 30
0.0
  0
SPLINE
  5
151
100
AcDbEntity
  8
Holes
 62
1
100
AcDbSpline
 70
0
 71
3
 72
13
 73
9
 74
7
 40
0.000000
 40
0.000000
 40
0.000000
 40
0.000000
 40
0.130887
 40
0.260692
 40
0.391579
 40
0.522467
 40
0.652271
 40
0.783158
 40
0.783158
 40
0.783158
 40
0.783158
 10
18.679780
 20
27.120000
 30
0.0
 10
18.683113
 20
27.163757
 30
0.0
 10
18.689752
 20
27.250908
 30
0.0
 10
18.742214
 20
27.372828
 30
0.0
 10
18.822031
 20
27.477749
 30
0.0
 10
18.926952
 20
27.557566
 30
0.0
 10
19.048872
 20
27.610028
 30
0.0
 10
19.136023
 20
27.616667
 30
0.0
 10
19.179780
 20
27.620000
 30
0.0
 11
18.679780
 21
27.120000
 31
0.0
 11
18.696910
 21
27.249762
 31
0.0
 11
18.746584
 21
27.369685
 31
0.0
 11
18.826227
 21
27.473553
 31
0.0
 11
18.930095
 21
27.553196
 31
0.0
 11
19.050018
 21
27.602870
 31
0.0
 11
19.179780
 21
27.620000
 31
0.0
  0
LWPOLYLINE
  5
152
100
AcDbEntity
  8
Holes
 62
1
100
AcDbPolyline
 90
2
 70
0
 10
19.179780
 20
16.090000
 30
0.0
 10
21.119780
 20
16.090000
 30
0.0
  0
SPLINE
  5
153
100
AcDbEntity
  8
Holes
 62
1
100
AcDbSpline
 70
0
 71
3
 72
13
 73
9
 74
7
 40
0.000000
 40
0.000000
 40
0.000000
 40
0.000000
 40
0.130887
 40
0.260692
 40
0.391579
 40
0.522467
 40
0.652271
 40
0.783158
 40
0.783158
 40
0.783158
 40
0.783158
 10
21.119780
 20
16.090000
 30
0.0
 10
21.163536
 20
16.086667
 30
0.0
 10
21.250688
 20
16.080028
 30
0.0
 10
21.372608
 20
16.027566
 30
0.0
 10
21.477529
 20
15.947749
 30
0.0
 10
21.557345
 20
15.842828
 30
0.0
 10
21.609808
 20
15.720908
 30
0.0
 10
21.616447
 20
15.633757
 30
0.0
 10
21.619780
 20
15.590000
 30
0.0
 11
21.119780
 21
16.090000
 31
0.0
 11
21.249541
 21
16.072870
 31
0.0
 11
21.369465
 21
16.023196
 31
0.0
 11
21.473333
 21
15.943553
 31
0.0
 11
21.552976
 21
15.839685
 31
0.0
 11
21.602650
 21
15.719762
 31
0.0
 11
21.619780
 21
15.590000
 31
0.0
  0
LWPOLYLINE
  5
154
100
AcDbEntity
  8
Holes
 62
1
100
AcDbPolyline
 90
2
 70
0
 10
21.619780
 20
15.590000
 30
0.0
 10
21.619780
 20
11.310000
 30
0.0
  0
SPLINE
  5
155
100
AcDbEntity
  8
Holes
 62
1
100
AcDbSpline
 70
0
 71
3
 72
13
 73
9
 74
7
 40
0.000000
 40
0.000000
 40
0.000000
 40
0.000000
 40
0.130887
 40
0.260692
 40
0.391579
 40
0.522467
 40
0.652271
 40
0.783158
 40
0.783158
 40
0.783158
 40
0.783158
 10
21.619780
 20
11.310000
 30
0.0
 10
21.616447
 20
11.266243
 30
0.0
 10
21.609808
 20
11.179092
 30
0.0
 10
21.557345
 20
11.057171
 30
0.0
 10
21.477529
 20
10.952251
 30
0.0
 10
21.372608
 20
10.872434
 30
0.0
 10
21.250688
 20
10.819972
 30
0.0
 10
21.163536
 20
10.813333
 30
0.0
 10
21.119780
 20
10.810000
 30
0.0
 11
21.619780
 21
11.310000
 31
0.0
 11
21.602650
 21
11.180238
 31
0.0
 11
21.552976
 21
11.060315
 31
0.0
 11
21.473333
 21
10.956446
 31
0.0
 11
21.369465
 21
10.876804
 31
0.0
 11
21.249541
 21
10.827130
 31
0.0
 11
21.119780
 21
10.810000
 31
0.0
  0
LWPOLYLINE
  5
156
100
AcDbEntity
  8
Holes
 62
1
100
AcDbPolyline
 90
2
 70
0
 10
21.119780
 20
10.810000
 30
0.0
 10
19.179780
 20
10.810000
 30
0.0
  0
SPLINE
  5
157
100
AcDbEntity
  8
Holes
 62
1
100
AcDbSpline
 70
0
 71
3
 72
13
 73
9
 74
7
 40
0.000000
 40
0.000000
 40
0.000000
 40
0.000000
 40
0.130887
 40
0.260692
 40
0.391579
 40
0.522467
 40
0.652271
 40
0.783158
 40
0.783158
 40
0.783158
 40
0.783158
 10
19.179780
 20
10.810000
 30
0.0
 10
19.136023
 20
10.813333
 30
0.0
 10
19.048872
 20
10.819972
 30
0.0
 10
18.926952
 20
10.872434
 30
0.0
 10
18.822031
 20
10.952251
 30
0.0
 10
18.742214
 20
11.057171
 30
0.0
 10
18.689752
 20
11.179092
 30
0.0
 10
18.683113
 20
11.266243
 30
0.0
 10
18.679780
 20
11.310000
 30
0.0
 11
19.179780
 21
10.810000
 31
0.0
 11
19.050018
 21
10.827130
 31
0.0
 11
18.930095
 21
10.876804
 31
0.0
 11
18.826227
 21
10.956446
 31
0.0
 11
18.746584
 21
11.060315
 31
0.0
 11
18.696910
 21
11.180238
 31
0.0
 11
18.679780
 21
11.310000
 31
0.0
  0
LWPOLYLINE
  5
158
100
AcDbEntity
  8
Holes
 62
1
100
AcDbPolyline
 90
2
 70
0
 10
18.679780
 20
11.310000
 30
0.0
 10
18.679780
 20
15.590000
 30
0.0
  0
LWPOLYLINE
  5
159
100
AcDbEntity
  8
Holes
 62
1
100
AcDbPolyline
 90
1
 70
1
 10
19.179780
 20
16.090000
 30
0.0
  0
SPLINE
  5
15a
100
AcDbEntity
  8
Holes
 62
1
100
AcDbSpline
 70
0
 71
3
 72
13
 73
9
 74
7
 40
0.000000
 40
0.000000
 40
0.000000
 40
0.000000
 40
0.130887
 40
0.260692
 40
0.391579
 40
0.522467
 40
0.652271
 40
0.783158
 40
0.783158
 40
0.783158
 40
0.783158
 10
18.679780
 20
15.590000
 30
0.0
 10
18.683113
 20
15.633757
 30
0.0
 10
18.689752
 20
15.720908
 30
0.0
 10
18.742214
 20
15.842828
 30
0.0
 10
18.822031
 20
15.947749
 30
0.0
 10
18.926952
 20
16.027566
 30
0.0
 10
19.048872
 20
16.080028
 30
0.0
 10
19.136023
 20
16.086667
 30
0.0
 10
19.179780
 20
16.090000
 30
0.0
 11
18.679780
 21
15.590000
 31
0.0
 11
18.696910
 21
15.719762
 31
0.0
 11
18.746584
 21
15.839685
 31
0.0
 11
18.826227
 21
15.943553
 31
0.0
 11
18.930095
 21
16.023196
 31
0.0
 11
19.050018
 21
16.072870
 31
0.0
 11
19.179780
 21
16.090000
 31
0.0
  0
LWPOLYLINE
  5
15b
100
AcDbEntity
  8
Holes
 62
1
100
AcDbPolyline
 90
2
 70
0
 10
24.259770
 20
27.620000
 30
0.0
 10
26.199770
 20
27.620000
 30
0.0
  0
SPLINE
  5
15c
100
AcDbEntity
  8
Holes
 62
1
100
AcDbSpline
 70
0
 71
3
 72
13
 73
9
 74
7
 40
0.000000
 40
0.000000
 40
0.000000
 40
0.000000
 40
0.130887
 40
0.260692
 40
0.391579
 40
0.522467
 40
0.652271
 40
0.783158
 40
0.783158
 40
0.783158
 40
0.783158
 10
26.199770
 20
27.620000
 30
0.0
 10
26.243526
 20
27.616667
 30
0.0
 10
26.330678
 20
27.610028
 30
0.0
 10
26.452598
 20
27.557566
 30
0.0
 10
26.557519
 20
27.477749
 30
0.0
 10
26.637335
 20
27.372828
 30
0.0
 10
26.689798
 20
27.250908
 30
0.0
 10
26.696437
 20
27.163757
 30
0.0
 10
26.699770
 20
27.120000
 30
0.0
 11
26.199770
 21
27.620000
 31
0.0
 11
26.329531
 21
27.602870
 31
0.0
 11
26.449455
 21
27.553196
 31
0.0
 11
26.553323
 21
27.473553
 31
0.0
 11
26.632966
 21
27.369685
 31
0.0
 11
26.682640
 21
27.249762
 31
0.0
 11
26.699770
 21
27.120000
 31
0.0
  0
LWPOLYLINE
  5
15d
100
AcDbEntity
  8
Holes
 62
1
100
AcDbPolyline
 90
2
 70
0
 10
26.699770
 20
27.120000
 30
0.0
 10
26.699770
 20
20.099999
 30
0.0
  0
SPLINE
  5
15e
100
AcDbEntity
  8
Holes
 62
1
100
AcDbSpline
 70
0
 71
3
 72
13
 73
9
 74
7
 40
0.000000
 40
0.000000
 40
0.000000
 40
0.000000
 40
0.130887
 40
0.260692
 40
0.391579
 40
0.522467
 40
0.652271
 40
0.783158
 40
0.783158
 40
0.783158
 40
0.783158
 10
26.699770
 20
20.099999
 30
0.0
 10
26.696437
 20
20.056243
 30
0.0
 10
26.689798
 20
19.969092
 30
0.0
 10
26.637335
 20
19.847171
 30
0.0
 10
26.557519
 20
19.742251
 30
0.0
 10
26.452598
 20
19.662434
 30
0.0
 10
26.330678
 20
19.609971
 30
0.0
 10
26.243526
 20
19.603333
 30
0.0
 10
26.199770
 20
19.599999
 30
0.0
 11
26.699770
 21
20.099999
 31
0.0
 11
26.682640
 21
19.970238
 31
0.0
 11
26.632966
 21
19.850314
 31
0.0
 11
26.553323
 21
19.746446
 31
0.0
 11
26.449455
 21
19.666804
 31
0.0
 11
26.329531
 21
19.617130
 31
0.0
 11
26.199770
 21
19.599999
 31
0.0
  0
LWPOLYLINE
  5
15f
100
AcDbEntity
  8
Holes
 62
1
100
AcDbPolyline
 90
2
 70
0
 10
26.199770
 20
19.599999
 30
0.0
 10
24.259770
 20
19.599999
 30
0.0
  0
SPLINE
  5
160
100
AcDbEntity
  8
Holes
 62
1
100
AcDbSpline
 70
0
 71
3
 72
13
 73
9
 74
7
 40
0.000000
 40
0.000000
 40
0.000000
 40
0.000000
 40
0.130887
 40
0.260692
 40
0.391579
 40
0.522467
 40
0.652271
 40
0.783158
 40
0.783158
 40
0.783158
 40
0.783158
 10
24.259770
 20
19.599999
 30
0.0
 10
24.216013
 20
19.603333
 30
0.0
 10
24.128862
 20
19.609971
 30
0.0
 10
24.006942
 20
19.662434
 30
0.0
 10
23.902021
 20
19.742251
 30
0.0
 10
23.822204
 20
19.847171
 30
0.0
 10
23.769742
 20
19.969092
 30
0.0
 10
23.763103
 20
20.056243
 30
0.0
 10
23.759770
 20
20.099999
 30
0.0
 11
24.259770
 21
19.599999
 31
0.0
 11
24.130008
 21
19.617130
 31
0.0
 11
24.010085
 21
19.666804
 31
0.0
 11
23.906217
 21
19.746446
 31
0.0
 11
23.826574
 21
19.850314
 31
0.0
 11
23.776900
 21
19.970238
 31
0.0
 11
23.759770
 21
20.099999
 31
0.0
  0
LWPOLYLINE
  5
161
100
AcDbEntity
  8
Holes
 62
1
100
AcDbPolyline
 90
2
 70
0
 10
23.759770
 20
20.099999
 30
0.0
 10
23.759770
 20
27.120000
 30
0.0
  0
LWPOLYLINE
  5
162
100
AcDbEntity
  8
Holes
 62
1
100
AcDbPolyline
 90
1
 70
1
 10
24.259770
 20
27.620000
 30
0.0
  0
SPLINE
  5
163
100
AcDbEntity
  8
Holes
 62
1
100
AcDbSpline
 70
0
 71
3
 72
13
 73
9
 74
7
 40
0.000000
 40
0.000000
 40
0.000000
 40
0.000000
 40
0.130887
 40
0.260692
 40
0.391579
 40
0.522467
 40
0.652271
 40
0.783158
 40
0.783158
 40
0.783158
 40
0.783158
 10
23.759770
 20
27.120000
 30
0.0
 10
23.763103
 20
27.163757
 30
0.0
 10
23.769742
 20
27.250908
 30
0.0
 10
23.822204
 20
27.372828
 30
0.0
 10
23.902021
 20
27.477749
 30
0.0
 10
24.006942
 20
27.557566
 30
0.0
 10
24.128862
 20
27.610028
 30
0.0
 10
24.216013
 20
27.616667
 30
0.0
 10
24.259770
 20
27.620000
 30
0.0
 11
23.759770
 21
27.120000
 31
0.0
 11
23.776900
 21
27.249762
 31
0.0
 11
23.826574
 21
27.369685
 31
0.0
 11
23.906217
 21
27.473553
 31
0.0
 11
24.010085
 21
27.553196
 31
0.0
 11
24.130008
 21
27.602870
 31
0.0
 11
24.259770
 21
27.620000
 31
0.0
  0
LWPOLYLINE
  5
164
100
AcDbEntity
  8
Holes
 62
1
100
AcDbPolyline
 90
2
 70
0
 10
24.259770
 20
16.090000
 30
0.0
 10
26.199770
 20
16.090000
 30
0.0
  0
SPLINE
  5
165
100
AcDbEntity
  8
Holes
 62
1
100
AcDbSpline
 70
0
 71
3
 72
13
 73
9
 74
7
 40
0.000000
 40
0.000000
 40
0.000000
 40
0.000000
 40
0.130887
 40
0.260692
 40
0.391579
 40
0.522467
 40
0.652271
 40
0.783158
 40
0.783158
 40
0.783158
 40
0.783158
 10
26.199770
 20
16.090000
 30
0.0
 10
26.243526
 20
16.086667
 30
0.0
 10
26.330678
 20
16.080028
 30
0.0
 10
26.452598
 20
16.027566
 30
0.0
 10
26.557519
 20
15.947749
 30
0.0
 10
26.637335
 20
15.842828
 30
0.0
 10
26.689798
 20
15.720908
 30
0.0
 10
26.696437
 20
15.633757
 30
0.0
 10
26.699770
 20
15.590000
 30
0.0
 11
26.199770
 21
16.090000
 31
0.0
 11
26.329531
 21
16.072870
 31
0.0
 11
26.449455
 21
16.023196
 31
0.0
 11
26.553323
 21
15.943553
 31
0.0
 11
26.632966
 21
15.839685
 31
0.0
 11
26.682640
 21
15.719762
 31
0.0
 11
26.699770
 21
15.590000
 31
0.0
  0
LWPOLYLINE
  5
166
100
AcDbEntity
  8
Holes
 62
1
100
AcDbPolyline
 90
2
 70
0
 10
26.699770
 20
15.590000
 30
0.0
 10
26.699770
 20
11.310000
 30
0.0
  0
SPLINE
  5
167
100
AcDbEntity
  8
Holes
 62
1
100
AcDbSpline
 70
0
 71
3
 72
13
 73
9
 74
7
 40
0.000000
 40
0.000000
 40
0.000000
 40
0.000000
 40
0.130887
 40
0.260692
 40
0.391579
 40
0.522467
 40
0.652271
 40
0.783158
 40
0.783158
 40
0.783158
 40
0.783158
 10
26.699770
 20
11.310000
 30
0.0
 10
26.696437
 20
11.266243
 30
0.0
 10
26.689798
 20
11.179092
 30
0.0
 10
26.637335
 20
11.057171
 30
0.0
 10
26.557519
 20
10.952251
 30
0.0
 10
26.452598
 20
10.872434
 30
0.0
 10
26.330678
 20
10.819972
 30
0.0
 10
26.243526
 20
10.813333
 30
0.0
 10
26.199770
 20
10.810000
 30
0.0
 11
26.699770
 21
11.310000
 31
0.0
 11
26.682640
 21
11.180238
 31
0.0
 11
26.632966
 21
11.060315
 31
0.0
 11
26.553323
 21
10.956446
 31
0.0
 11
26.449455
 21
10.876804
 31
0.0
 11
26.329531
 21
10.827130
 31
0.0
 11
26.199770
 21
10.810000
 31
0.0
  0
LWPOLYLINE
  5
168
100
AcDbEntity
  8
Holes
 62
1
100
AcDbPolyline
 90
2
 70
0
 10
26.199770
 20
10.810000
 30
0.0
 10
24.259770
 20
10.810000
 30
0.0
  0
SPLINE
  5
169
100
AcDbEntity
  8
Holes
 62
1
100
AcDbSpline
 70
0
 71
3
 72
13
 73
9
 74
7
 40
0.000000
 40
0.000000
 40
0.000000
 40
0.000000
 40
0.130887
 40
0.260692
 40
0.391579
 40
0.522467
 40
0.652271
 40
0.783158
 40
0.783158
 40
0.783158
 40
0.783158
 10
24.259770
 20
10.810000
 30
0.0
 10
24.216013
 20
10.813333
 30
0.0
 10
24.128862
 20
10.819972
 30
0.0
 10
24.006942
 20
10.872434
 30
0.0
 10
23.902021
 20
10.952251
 30
0.0
 10
23.822204
 20
11.057171
 30
0.0
 10
23.769742
 20
11.179092
 30
0.0
 10
23.763103
 20
11.266243
 30
0.0
 10
23.759770
 20
11.310000
 30
0.0
 11
24.259770
 21
10.810000
 31
0.0
 11
24.130008
 21
10.827130
 31
0.0
 11
24.010085
 21
10.876804
 31
0.0
 11
23.906217
 21
10.956446
 31
0.0
 11
23.826574
 21
11.060315
 31
0.0
 11
23.776900
 21
11.180238
 31
0.0
 11
23.759770
 21
11.310000
 31
0.0
  0
LWPOLYLINE
  5
16a
100
AcDbEntity
  8
Holes
 62
1
100
AcDbPolyline
 90
2
 70
0
 10
23.759770
 20
11.310000
 30
0.0
 10
23.759770
 20
15.590000
 30
0.0
  0
LWPOLYLINE
  5
16b
100
AcDbEntity
  8
Holes
 62
1
100
AcDbPolyline
 90
1
 70
1
 10
24.259770
 20
16.090000
 30
0.0
  0
SPLINE
  5
16c
100
AcDbEntity
  8
Holes
 62
1
100
AcDbSpline
 70
0
 71
3
 72
13
 73
9
 74
7
 40
0.000000
 40
0.000000
 40
0.000000
 40
0.000000
 40
0.130887
 40
0.260692
 40
0.391579
 40
0.522467
 40
0.652271
 40
0.783158
 40
0.783158
 40
0.783158
 40
0.783158
 10
23.759770
 20
15.590000
 30
0.0
 10
23.763103
 20
15.633757
 30
0.0
 10
23.769742
 20
15.720908
 30
0.0
 10
23.822204
 20
15.842828
 30
0.0
 10
23.902021
 20
15.947749
 30
0.0
 10
24.006942
 20
16.027566
 30
0.0
 10
24.128862
 20
16.080028
 30
0.0
 10
24.216013
 20
16.086667
 30
0.0
 10
24.259770
 20
16.090000
 30
0.0
 11
23.759770
 21
15.590000
 31
0.0
 11
23.776900
 21
15.719762
 31
0.0
 11
23.826574
 21
15.839685
 31
0.0
 11
23.906217
 21
15.943553
 31
0.0
 11
24.010085
 21
16.023196
 31
0.0
 11
24.130008
 21
16.072870
 31
0.0
 11
24.259770
 21
16.090000
 31
0.0
  0
LWPOLYLINE
  5
16d
100
AcDbEntity
  8
Holes
 62
1
100
AcDbPolyline
 90
2
 70
0
 10
29.339790
 20
27.619980
 30
0.0
 10
31.279790
 20
27.619980
 30
0.0
  0
SPLINE
  5
16e
100
AcDbEntity
  8
Holes
 62
1
100
AcDbSpline
 70
0
 71
3
 72
13
 73
9
 74
7
 40
0.000000
 40
0.000000
 40
0.000000
 40
0.000000
 40
0.130887
 40
0.260692
 40
0.391579
 40
0.522467
 40
0.652271
 40
0.783158
 40
0.783158
 40
0.783158
 40
0.783158
 10
31.279790
 20
27.619980
 30
0.0
 10
31.323546
 20
27.616647
 30
0.0
 10
31.410698
 20
27.610008
 30
0.0
 10
31.532618
 20
27.557546
 30
0.0
 10
31.637539
 20
27.477729
 30
0.0
 10
31.717355
 20
27.372808
 30
0.0
 10
31.769818
 20
27.250888
 30
0.0
 10
31.776457
 20
27.163737
 30
0.0
 10
31.779790
 20
27.119980
 30
0.0
 11
31.279790
 21
27.619980
 31
0.0
 11
31.409551
 21
27.602850
 31
0.0
 11
31.529475
 21
27.553176
 31
0.0
 11
31.633343
 21
27.473533
 31
0.0
 11
31.712986
 21
27.369665
 31
0.0
 11
31.762660
 21
27.249742
 31
0.0
 11
31.779790
 21
27.119980
 31
0.0
  0
LWPOLYLINE
  5
16f
100
AcDbEntity
  8
Holes
 62
1
100
AcDbPolyline
 90
2
 70
0
 10
31.779790
 20
27.119980
 30
0.0
 10
31.779790
 20
20.099980
 30
0.0
  0
SPLINE
  5
170
100
AcDbEntity
  8
Holes
 62
1
100
AcDbSpline
 70
0
 71
3
 72
13
 73
9
 74
7
 40
0.000000
 40
0.000000
 40
0.000000
 40
0.000000
 40
0.130887
 40
0.260692
 40
0.391579
 40
0.522467
 40
0.652271
 40
0.783158
 40
0.783158
 40
0.783158
 40
0.783158
 10
31.779790
 20
20.099980
 30
0.0
 10
31.776457
 20
20.056223
 30
0.0
 10
31.769818
 20
19.969072
 30
0.0
 10
31.717355
 20
19.847151
 30
0.0
 10
31.637539
 20
19.742231
 30
0.0
 10
31.532618
 20
19.662414
 30
0.0
 10
31.410698
 20
19.609951
 30
0.0
 10
31.323546
 20
19.603313
 30
0.0
 10
31.279790
 20
19.599980
 30
0.0
 11
31.779790
 21
20.099980
 31
0.0
 11
31.762660
 21
19.970218
 31
0.0
 11
31.712986
 21
19.850294
 31
0.0
 11
31.633343
 21
19.746426
 31
0.0
 11
31.529475
 21
19.666784
 31
0.0
 11
31.409551
 21
19.617110
 31
0.0
 11
31.279790
 21
19.599980
 31
0.0
  0
LWPOLYLINE
  5
171
100
AcDbEntity
  8
Holes
 62
1
100
AcDbPolyline
 90
2
 70
0
 10
31.279790
 20
19.599980
 30
0.0
 10
29.339790
 20
19.599980
 30
0.0
  0
SPLINE
  5
172
100
AcDbEntity
  8
Holes
 62
1
100
AcDbSpline
 70
0
 71
3
 72
13
 73
9
 74
7
 40
0.000000
 40
0.000000
 40
0.000000
 40
0.000000
 40
0.130887
 40
0.260692
 40
0.391579
 40
0.522467
 40
0.652271
 40
0.783158
 40
0.783158
 40
0.783158
 40
0.783158
 10
29.339790
 20
19.599980
 30
0.0
 10
29.296033
 20
19.603313
 30
0.0
 10
29.208882
 20
19.609951
 30
0.0
 10
29.086962
 20
19.662414
 30
0.0
 10
28.982041
 20
19.742231
 30
0.0
 10
28.902224
 20
19.847151
 30
0.0
 10
28.849762
 20
19.969072
 30
0.0
 10
28.843123
 20
20.056223
 30
0.0
 10
28.839790
 20
20.099980
 30
0.0
 11
29.339790
 21
19.599980
 31
0.0
 11
29.210028
 21
19.617110
 31
0.0
 11
29.090105
 21
19.666784
 31
0.0
 11
28.986237
 21
19.746426
 31
0.0
 11
28.906594
 21
19.850294
 31
0.0
 11
28.856920
 21
19.970218
 31
0.0
 11
28.839790
 21
20.099980
 31
0.0
  0
LWPOLYLINE
  5
173
100
AcDbEntity
  8
Holes
 62
1
100
AcDbPolyline
 90
2
 70
0
 10
28.839790
 20
20.099980
 30
0.0
 10
28.839790
 20
27.119980
 30
0.0
  0
LWPOLYLINE
  5
174
100
AcDbEntity
  8
Holes
 62
1
100
AcDbPolyline
 90
1
 70
1
 10
29.339790
 20
27.619980
 30
0.0
  0
SPLINE
  5
175
100
AcDbEntity
  8
Holes
 62
1
100
AcDbSpline
 70
0
 71
3
 72
13
 73
9
 74
7
 40
0.000000
 40
0.000000
 40
0.000000
 40
0.000000
 40
0.130887
 40
0.260692
 40
0.391579
 40
0.522467
 40
0.652271
 40
0.783158
 40
0.783158
 40
0.783158
 40
0.783158
 10
28.839790
 20
27.119980
 30
0.0
 10
28.843123
 20
27.163737
 30
0.0
 10
28.849762
 20
27.250888
 30
0.0
 10
28.902224
 20
27.372808
 30
0.0
 10
28.982041
 20
27.477729
 30
0.0
 10
29.086962
 20
27.557546
 30
0.0
 10
29.208882
 20
27.610008
 30
0.0
 10
29.296033
 20
27.616647
 30
0.0
 10
29.339790
 20
27.619980
 30
0.0
 11
28.839790
 21
27.119980
 31
0.0
 11
28.856920
 21
27.249742
 31
0.0
 11
28.906594
 21
27.369665
 31
0.0
 11
28.986237
 21
27.473533
 31
0.0
 11
29.090105
 21
27.553176
 31
0.0
 11
29.210028
 21
27.602850
 31
0.0
 11
29.339790
 21
27.619980
 31
0.0
  0
LWPOLYLINE
  5
176
100
AcDbEntity
  8
Holes
 62
1
100
AcDbPolyline
 90
2
 70
0
 10
29.339790
 20
16.089990
 30
0.0
 10
31.279790
 20
16.089990
 30
0.0
  0
SPLINE
  5
177
100
AcDbEntity
  8
Holes
 62
1
100
AcDbSpline
 70
0
 71
3
 72
13
 73
9
 74
7
 40
0.000000
 40
0.000000
 40
0.000000
 40
0.000000
 40
0.130887
 40
0.260692
 40
0.391579
 40
0.522467
 40
0.652271
 40
0.783158
 40
0.783158
 40
0.783158
 40
0.783158
 10
31.279790
 20
16.089990
 30
0.0
 10
31.323546
 20
16.086657
 30
0.0
 10
31.410698
 20
16.080018
 30
0.0
 10
31.532618
 20
16.027556
 30
0.0
 10
31.637539
 20
15.947739
 30
0.0
 10
31.717355
 20
15.842818
 30
0.0
 10
31.769818
 20
15.720898
 30
0.0
 10
31.776457
 20
15.633747
 30
0.0
 10
31.779790
 20
15.589990
 30
0.0
 11
31.279790
 21
16.089990
 31
0.0
 11
31.409551
 21
16.072860
 31
0.0
 11
31.529475
 21
16.023186
 31
0.0
 11
31.633343
 21
15.943543
 31
0.0
 11
31.712986
 21
15.839675
 31
0.0
 11
31.762660
 21
15.719752
 31
0.0
 11
31.779790
 21
15.589990
 31
0.0
  0
LWPOLYLINE
  5
178
100
AcDbEntity
  8
Holes
 62
1
100
AcDbPolyline
 90
2
 70
0
 10
31.779790
 20
15.589990
 30
0.0
 10
31.779790
 20
11.309990
 30
0.0
  0
SPLINE
  5
179
100
AcDbEntity
  8
Holes
 62
1
100
AcDbSpline
 70
0
 71
3
 72
13
 73
9
 74
7
 40
0.000000
 40
0.000000
 40
0.000000
 40
0.000000
 40
0.130887
 40
0.260692
 40
0.391579
 40
0.522467
 40
0.652271
 40
0.783158
 40
0.783158
 40
0.783158
 40
0.783158
 10
31.779790
 20
11.309990
 30
0.0
 10
31.776457
 20
11.266233
 30
0.0
 10
31.769818
 20
11.179082
 30
0.0
 10
31.717355
 20
11.057161
 30
0.0
 10
31.637539
 20
10.952241
 30
0.0
 10
31.532618
 20
10.872424
 30
0.0
 10
31.410698
 20
10.819962
 30
0.0
 10
31.323546
 20
10.813323
 30
0.0
 10
31.279790
 20
10.809990
 30
0.0
 11
31.779790
 21
11.309990
 31
0.0
 11
31.762660
 21
11.180228
 31
0.0
 11
31.712986
 21
11.060305
 31
0.0
 11
31.633343
 21
10.956436
 31
0.0
 11
31.529475
 21
10.876794
 31
0.0
 11
31.409551
 21
10.827120
 31
0.0
 11
31.279790
 21
10.809990
 31
0.0
  0
LWPOLYLINE
  5
17a
100
AcDbEntity
  8
Holes
 62
1
100
AcDbPolyline
 90
2
 70
0
 10
31.279790
 20
10.809990
 30
0.0
 10
29.339790
 20
10.809990
 30
0.0
  0
SPLINE
  5
17b
100
AcDbEntity
  8
Holes
 62
1
100
AcDbSpline
 70
0
 71
3
 72
13
 73
9
 74
7
 40
0.000000
 40
0.000000
 40
0.000000
 40
0.000000
 40
0.130887
 40
0.260692
 40
0.391579
 40
0.522467
 40
0.652271
 40
0.783158
 40
0.783158
 40
0.783158
 40
0.783158
 10
29.339790
 20
10.809990
 30
0.0
 10
29.296033
 20
10.813323
 30
0.0
 10
29.208882
 20
10.819962
 30
0.0
 10
29.086962
 20
10.872424
 30
0.0
 10
28.982041
 20
10.952241
 30
0.0
 10
28.902224
 20
11.057161
 30
0.0
 10
28.849762
 20
11.179082
 30
0.0
 10
28.843123
 20
11.266233
 30
0.0
 10
28.839790
 20
11.309990
 30
0.0
 11
29.339790
 21
10.809990
 31
0.0
 11
29.210028
 21
10.827120
 31
0.0
 11
29.090105
 21
10.876794
 31
0.0
 11
28.986237
 21
10.956436
 31
0.0
 11
28.906594
 21
11.060305
 31
0.0
 11
28.856920
 21
11.180228
 31
0.0
 11
28.839790
 21
11.309990
 31
0.0
  0
LWPOLYLINE
  5
17c
100
AcDbEntity
  8
Holes
 62
1
100
AcDbPolyline
 90
2
 70
0
 10
28.839790
 20
11.309990
 30
0.0
 10
28.839790
 20
15.589990
 30
0.0
  0
LWPOLYLINE
  5
17d
100
AcDbEntity
  8
Holes
 62
1
100
AcDbPolyline
 90
1
 70
1
 10
29.339790
 20
16.089990
 30
0.0
  0
SPLINE
  5
17e
100
AcDbEntity
  8
Holes
 62
1
100
AcDbSpline
 70
0
 71
3
 72
13
 73
9
 74
7
 40
0.000000
 40
0.000000
 40
0.000000
 40
0.000000
 40
0.130887
 40
0.260692
 40
0.391579
 40
0.522467
 40
0.652271
 40
0.783158
 40
0.783158
 40
0.783158
 40
0.783158
 10
28.839790
 20
15.589990
 30
0.0
 10
28.843123
 20
15.633747
 30
0.0
 10
28.849762
 20
15.720898
 30
0.0
 10
28.902224
 20
15.842818
 30
0.0
 10
28.982041
 20
15.947739
 30
0.0
 10
29.086962
 20
16.027556
 30
0.0
 10
29.208882
 20
16.080018
 30
0.0
 10
29.296033
 20
16.086657
 30
0.0
 10
29.339790
 20
16.089990
 30
0.0
 11
28.839790
 21
15.589990
 31
0.0
 11
28.856920
 21
15.719752
 31
0.0
 11
28.906594
 21
15.839675
 31
0.0
 11
28.986237
 21
15.943543
 31
0.0
 11
29.090105
 21
16.023186
 31
0.0
 11
29.210028
 21
16.072860
 31
0.0
 11
29.339790
 21
16.089990
 31
0.0
  0
LWPOLYLINE
  5
17f
100
AcDbEntity
  8
Board_Outline
 62
1
100
AcDbPolyline
 90
4
 70
1
 10
0.000000
 20
128.499997
 30
0.0
 10
40.299999
 20
128.499997
 30
0.0
 10
40.299999
 20
-0.000003
 30
0.0
 10
0.000000
 20
-0.000003
 30
0.0
  0
ENDSEC
  0
SECTION
  2
OBJECTS
  0
DICTIONARY
  5
C
330
0
100
AcDbDictionary
  3
ACAD_GROUP
350
D
  3
ACAD_MLINESTYLE
350
17
  0
DICTIONARY
  5
D
330
C
100
AcDbDictionary
  0
DICTIONARY
  5
1A
330
C
100
AcDbDictionary
  0
DICTIONARY
  5
17
330
C
100
AcDbDictionary
  3
STANDARD
350
18
  0
DICTIONARY
  5
19
330
C
100
AcDbDictionary
  0
ENDSEC
  0
EOF
